<svg width="17" height="17" viewBox="0 0 17 17" fill="none" xmlns="http://www.w3.org/2000/svg">
<path d="M12.5885 3.90688L8.8218 1.88021C8.4218 1.66688 7.94846 1.66688 7.54846 1.88021L3.78846 3.90688C3.51513 4.06021 3.3418 4.35355 3.3418 4.67355C3.3418 5.00021 3.50846 5.29355 3.78846 5.44021L7.55513 7.46688C7.75513 7.57355 7.97513 7.62688 8.18846 7.62688C8.4018 7.62688 8.62846 7.57355 8.8218 7.46688L12.5885 5.44021C12.8618 5.29355 13.0351 5.00021 13.0351 4.67355C13.0351 4.35355 12.8618 4.06021 12.5885 3.90688Z" fill="#56575C"/>
<path d="M6.93612 8.17343L3.43612 6.42676C3.16279 6.28676 2.85612 6.30676 2.59612 6.46009C2.34279 6.62009 2.18945 6.89343 2.18945 7.19343V10.5001C2.18945 11.0734 2.50945 11.5868 3.02279 11.8468L6.52279 13.5934C6.64279 13.6534 6.77612 13.6868 6.90945 13.6868C7.06279 13.6868 7.22279 13.6401 7.36279 13.5601C7.61612 13.4001 7.76945 13.1268 7.76945 12.8268V9.52009C7.76279 8.94676 7.44279 8.43343 6.93612 8.17343Z" fill="#56575C"/>
<path d="M14.1886 7.19343V8.83343C13.8686 8.74009 13.5286 8.70009 13.1886 8.70009C12.2819 8.70009 11.3952 9.01343 10.6952 9.57343C9.73523 10.3268 9.18857 11.4668 9.18857 12.7001C9.18857 13.0268 9.22857 13.3534 9.31523 13.6668C9.21523 13.6534 9.11523 13.6134 9.0219 13.5534C8.76857 13.4001 8.61523 13.1268 8.61523 12.8268V9.52009C8.61523 8.94676 8.93523 8.43343 9.4419 8.17343L12.9419 6.42676C13.2152 6.28676 13.5219 6.30676 13.7819 6.46009C14.0352 6.62009 14.1886 6.89343 14.1886 7.19343Z" fill="#56575C"/>
<path d="M15.3084 10.5806C14.7151 9.98729 13.9284 9.68729 13.1484 9.70062C12.3951 9.70729 11.6417 10.0073 11.0684 10.5806C10.6684 10.974 10.4084 11.4673 10.2817 11.9806C10.2084 12.2606 10.1817 12.5473 10.2017 12.834V12.8673C10.2017 12.914 10.2084 12.954 10.2151 13.0073C10.2151 13.0073 10.2151 13.0073 10.2217 13.014V13.034C10.2817 13.6873 10.5617 14.3206 11.0684 14.8206C11.8417 15.594 12.9284 15.854 13.9084 15.6073C14.2017 15.534 14.4884 15.414 14.7551 15.254C14.9551 15.1406 15.1417 14.994 15.3084 14.8206C15.8084 14.3206 16.0951 13.6873 16.1551 13.0273C16.1617 13.0273 16.1617 13.014 16.1617 13.0073C16.1751 12.9606 16.1751 12.9073 16.1751 12.8606C16.1751 12.854 16.1817 12.8406 16.1817 12.8273C16.2217 12.0206 15.9284 11.194 15.3084 10.5806ZM14.3417 13.8406C14.1484 14.034 13.8351 14.034 13.6351 13.8406L13.1951 13.4006L12.7417 13.854C12.5417 14.054 12.2284 14.054 12.0351 13.854C11.8351 13.6606 11.8351 13.3473 12.0351 13.1473L12.4884 12.694L12.0484 12.254C11.8551 12.054 11.8551 11.7406 12.0484 11.5473C12.2484 11.3473 12.5617 11.3473 12.7617 11.5473L13.1951 11.9873L13.6151 11.5606C13.8151 11.3673 14.1284 11.3673 14.3284 11.5606C14.5217 11.7606 14.5217 12.074 14.3284 12.274L13.9017 12.694L14.3417 13.1273C14.5417 13.3273 14.5417 13.6406 14.3417 13.8406Z" fill="#56575C"/>
</svg>
