<svg width="17" height="17" viewBox="0 0 17 17" fill="none" xmlns="http://www.w3.org/2000/svg">
<path d="M12.5885 3.90737L8.8218 1.8807C8.4218 1.66737 7.94846 1.66737 7.54846 1.8807L3.78846 3.90737C3.51513 4.0607 3.3418 4.35404 3.3418 4.67404C3.3418 5.0007 3.50846 5.29404 3.78846 5.4407L7.55513 7.46737C7.75513 7.57404 7.97513 7.62737 8.18846 7.62737C8.4018 7.62737 8.62846 7.57404 8.8218 7.46737L12.5885 5.4407C12.8618 5.29404 13.0351 5.0007 13.0351 4.67404C13.0351 4.35404 12.8618 4.0607 12.5885 3.90737Z" fill="#56575C"/>
<path d="M6.93417 8.17391L3.43417 6.42725C3.16083 6.28725 2.85417 6.30725 2.59417 6.46058C2.34083 6.62058 2.1875 6.89391 2.1875 7.19391V10.5006C2.1875 11.0739 2.5075 11.5872 3.02083 11.8472L6.52083 13.5939C6.64083 13.6539 6.77417 13.6872 6.9075 13.6872C7.06083 13.6872 7.22083 13.6406 7.36083 13.5606C7.61417 13.4006 7.7675 13.1272 7.7675 12.8272V9.52058C7.76083 8.94725 7.44083 8.43391 6.93417 8.17391Z" fill="#56575C"/>
<path d="M14.1866 7.19391V8.83391C13.8666 8.74058 13.5266 8.70058 13.1866 8.70058C12.2799 8.70058 11.3933 9.01391 10.6933 9.57391C9.73328 10.3272 9.18661 11.4672 9.18661 12.7006C9.18661 13.0272 9.22661 13.3539 9.31328 13.6672C9.21328 13.6539 9.11328 13.6139 9.01995 13.5539C8.76661 13.4006 8.61328 13.1272 8.61328 12.8272V9.52058C8.61328 8.94725 8.93328 8.43391 9.43995 8.17391L12.9399 6.42725C13.2133 6.28725 13.5199 6.30725 13.7799 6.46058C14.0333 6.62058 14.1866 6.89391 14.1866 7.19391Z" fill="#56575C"/>
<path d="M15.5075 10.8139C14.9608 10.1405 14.1275 9.71387 13.1875 9.71387C12.4808 9.71387 11.8275 9.96053 11.3142 10.3739C10.6208 10.9205 10.1875 11.7672 10.1875 12.7139C10.1875 13.2739 10.3475 13.8072 10.6208 14.2605C10.8008 14.5605 11.0275 14.8205 11.2942 15.0339H11.3008C11.8142 15.4605 12.4742 15.7139 13.1875 15.7139C13.9475 15.7139 14.6342 15.4339 15.1608 14.9672C15.3942 14.7672 15.5942 14.5272 15.7542 14.2605C16.0275 13.8072 16.1875 13.2739 16.1875 12.7139C16.1875 11.9939 15.9342 11.3272 15.5075 10.8139ZM14.6942 12.3405L13.0942 13.8205C13.0008 13.9072 12.8742 13.9539 12.7542 13.9539C12.6275 13.9539 12.5008 13.9072 12.4008 13.8072L11.6608 13.0672C11.4675 12.8739 11.4675 12.5539 11.6608 12.3605C11.8542 12.1672 12.1742 12.1672 12.3675 12.3605L12.7675 12.7605L14.0142 11.6072C14.2142 11.4205 14.5342 11.4339 14.7208 11.6339C14.9142 11.8405 14.9008 12.1539 14.6942 12.3405Z" fill="#56575C"/>
</svg>
