<svg width="17" height="17" viewBox="0 0 17 17" fill="none" xmlns="http://www.w3.org/2000/svg">
<path d="M15.5208 7.36711C15.2475 7.36711 15.0208 7.14044 15.0208 6.86711V5.53377C15.0208 3.81377 13.9075 2.70044 12.1875 2.70044H5.52083C3.80083 2.70044 2.6875 3.81377 2.6875 5.53377V6.86711C2.6875 7.14044 2.46083 7.36711 2.1875 7.36711C1.91417 7.36711 1.6875 7.14044 1.6875 6.86711V5.53377C1.6875 3.24044 3.2275 1.70044 5.52083 1.70044H12.1875C14.4808 1.70044 16.0208 3.24044 16.0208 5.53377V6.86711C16.0208 7.14044 15.7942 7.36711 15.5208 7.36711Z" fill="#56575C"/>
<path d="M12.1875 16.0339H5.52083C3.2275 16.0339 1.6875 14.4939 1.6875 12.2005V10.8672C1.6875 10.5939 1.91417 10.3672 2.1875 10.3672C2.46083 10.3672 2.6875 10.5939 2.6875 10.8672V12.2005C2.6875 13.9205 3.80083 15.0339 5.52083 15.0339H12.1875C13.9075 15.0339 15.0208 13.9205 15.0208 12.2005V10.8672C15.0208 10.5939 15.2475 10.3672 15.5208 10.3672C15.7942 10.3672 16.0208 10.5939 16.0208 10.8672V12.2005C16.0208 14.4939 14.4808 16.0339 12.1875 16.0339Z" fill="#56575C"/>
<path d="M11.787 6.34066L9.28029 4.98732C9.01362 4.84732 8.70029 4.84732 8.43362 4.98732L5.92029 6.34066C5.74029 6.44066 5.62695 6.63399 5.62695 6.84732C5.62695 7.06732 5.74029 7.26066 5.92029 7.36066L8.42695 8.71399C8.56029 8.78732 8.70695 8.82066 8.85362 8.82066C9.00029 8.82066 9.14695 8.78732 9.28029 8.71399L11.787 7.36066C11.967 7.26066 12.0803 7.06732 12.0803 6.84732C12.0803 6.63399 11.967 6.44066 11.787 6.34066Z" fill="#56575C"/>
<path d="M8.01352 9.18047L5.68018 8.01381C5.50018 7.92714 5.29352 7.93381 5.12018 8.04047C4.95352 8.14714 4.85352 8.32714 4.85352 8.52714V10.7338C4.85352 11.1138 5.06685 11.4605 5.40685 11.6271L7.74018 12.7938C7.82018 12.8338 7.90685 12.8538 8.00018 12.8538C8.10685 12.8538 8.20685 12.8271 8.30018 12.7671C8.47352 12.6605 8.57352 12.4805 8.57352 12.2805V10.0738C8.56685 9.69381 8.36018 9.35381 8.01352 9.18047Z" fill="#56575C"/>
<path d="M12.5795 8.04047C12.4061 7.93381 12.1995 7.92714 12.0195 8.01381L9.68615 9.18047C9.34615 9.35381 9.13281 9.69381 9.13281 10.0738V12.2805C9.13281 12.4805 9.23281 12.6605 9.40615 12.7671C9.49948 12.8271 9.59948 12.8538 9.70615 12.8538C9.79281 12.8538 9.87948 12.8338 9.96615 12.7938L12.2995 11.6271C12.6395 11.4538 12.8528 11.1138 12.8528 10.7338V8.52714C12.8528 8.32714 12.7528 8.14714 12.5795 8.04047Z" fill="#56575C"/>
</svg>
