<svg width="17" height="17" viewBox="0 0 17 17" fill="none" xmlns="http://www.w3.org/2000/svg">
<path d="M10.1875 2.31377V7.85377C10.1875 8.53377 9.63417 9.08711 8.95417 9.08711H2.85417C2.4875 9.08711 2.1875 8.78711 2.1875 8.42044V4.16044C2.1875 2.80044 3.2875 1.70044 4.6475 1.70044H9.5675C9.91417 1.70044 10.1875 1.97377 10.1875 2.31377Z" fill="#56575C"/>
<path d="M15.1875 10.7004C15.3742 10.7004 15.5208 10.8471 15.5208 11.0338V11.7004C15.5208 12.8071 14.6275 13.7004 13.5208 13.7004C13.5208 12.6004 12.6208 11.7004 11.5208 11.7004C10.4208 11.7004 9.52083 12.6004 9.52083 13.7004H8.1875C8.1875 12.6004 7.2875 11.7004 6.1875 11.7004C5.0875 11.7004 4.1875 12.6004 4.1875 13.7004C3.08083 13.7004 2.1875 12.8071 2.1875 11.7004V10.3671C2.1875 10.0004 2.4875 9.70044 2.85417 9.70044H9.1875C10.1075 9.70044 10.8542 8.95377 10.8542 8.03377V4.36711C10.8542 4.00044 11.1542 3.70044 11.5208 3.70044H12.0808C12.5608 3.70044 13.0008 3.96044 13.2408 4.37377L13.6675 5.12044C13.7275 5.22711 13.6475 5.36711 13.5208 5.36711C12.6008 5.36711 11.8542 6.11377 11.8542 7.03377V9.03377C11.8542 9.95377 12.6008 10.7004 13.5208 10.7004H15.1875Z" fill="#56575C"/>
<path d="M6.18685 15.0339C6.92323 15.0339 7.52018 14.4369 7.52018 13.7005C7.52018 12.9641 6.92323 12.3672 6.18685 12.3672C5.45047 12.3672 4.85352 12.9641 4.85352 13.7005C4.85352 14.4369 5.45047 15.0339 6.18685 15.0339Z" fill="#56575C"/>
<path d="M11.5208 15.0339C12.2572 15.0339 12.8542 14.4369 12.8542 13.7005C12.8542 12.9641 12.2572 12.3672 11.5208 12.3672C10.7845 12.3672 10.1875 12.9641 10.1875 13.7005C10.1875 14.4369 10.7845 15.0339 11.5208 15.0339Z" fill="#56575C"/>
<path d="M15.5202 8.72052V9.70052H13.5202C13.1535 9.70052 12.8535 9.40052 12.8535 9.03385V7.03385C12.8535 6.66719 13.1535 6.36719 13.5202 6.36719H14.3802L15.3468 8.06052C15.4602 8.26052 15.5202 8.48719 15.5202 8.72052Z" fill="#56575C"/>
</svg>
