<svg width="21" height="21" viewBox="0 0 21 21" fill="none" xmlns="http://www.w3.org/2000/svg">
<path d="M15.9019 1.98651H5.90186C4.51852 1.98651 3.40186 3.09484 3.40186 4.46151V13.5532C3.40186 14.9198 4.51852 16.0282 5.90186 16.0282H6.53519C7.20186 16.0282 7.83519 16.2865 8.30186 16.7532L9.72686 18.1615C10.3769 18.8032 11.4352 18.8032 12.0852 18.1615L13.5102 16.7532C13.9769 16.2865 14.6185 16.0282 15.2769 16.0282H15.9019C17.2852 16.0282 18.4019 14.9198 18.4019 13.5532V4.46151C18.4019 3.09484 17.2852 1.98651 15.9019 1.98651ZM9.55186 11.1615C9.89352 11.1615 10.1769 11.4448 10.1769 11.7865C10.1769 12.1282 9.89352 12.4115 9.55186 12.4115H7.31852C6.95186 12.4115 6.61019 12.2365 6.39352 11.9365C6.18519 11.6532 6.13519 11.3032 6.23519 10.9698C6.52686 10.0782 7.24352 9.59484 7.87686 9.16151C8.54352 8.71151 8.91852 8.42818 8.91852 7.94484C8.91852 7.51151 8.56852 7.16151 8.13519 7.16151C7.70186 7.16151 7.36019 7.51984 7.36019 7.95318C7.36019 8.29484 7.07686 8.57818 6.73519 8.57818C6.39352 8.57818 6.11019 8.29484 6.11019 7.95318C6.11019 6.83651 7.01852 5.91984 8.14352 5.91984C9.26852 5.91984 10.1769 6.82818 10.1769 7.95318C10.1769 9.12818 9.29352 9.72818 8.58519 10.2115C8.14352 10.5115 7.72686 10.7948 7.51852 11.1698H9.55186V11.1615ZM15.0685 11.2198H14.8935V11.7948C14.8935 12.1365 14.6102 12.4198 14.2685 12.4198C13.9269 12.4198 13.6435 12.1365 13.6435 11.7948V11.2198H12.0102C12.0102 11.2198 12.0102 11.2198 12.0019 11.2198C11.5935 11.2198 11.2185 11.0032 11.0102 10.6532C10.8019 10.2948 10.8019 9.85318 11.0102 9.50318C11.5769 8.52818 12.2352 7.41985 12.8352 6.45318C13.1019 6.02818 13.6102 5.83651 14.0852 5.96984C14.5602 6.11151 14.8935 6.54484 14.8852 7.04484V9.97818H15.0685C15.4102 9.97818 15.6935 10.2615 15.6935 10.6032C15.6935 10.9448 15.4102 11.2198 15.0685 11.2198Z" fill="url(#paint0_linear_582_14752)"/>
<path d="M13.6435 9.96953V7.51953C13.1518 8.31953 12.6435 9.17786 12.1852 9.9612H13.6435V9.96953Z" fill="url(#paint1_linear_582_14752)"/>
<defs>
<linearGradient id="paint0_linear_582_14752" x1="18.4019" y1="10.3146" x2="3.40186" y2="10.3146" gradientUnits="userSpaceOnUse">
<stop stop-color="#159645"/>
<stop offset="1" stop-color="#88C342"/>
</linearGradient>
<linearGradient id="paint1_linear_582_14752" x1="13.6435" y1="8.74453" x2="12.1852" y2="8.74453" gradientUnits="userSpaceOnUse">
<stop stop-color="#159645"/>
<stop offset="1" stop-color="#88C342"/>
</linearGradient>
</defs>
</svg>
