<svg width="24" height="24" viewBox="0 0 24 24" fill="none" xmlns="http://www.w3.org/2000/svg">
<path d="M9.89074 16.1156L9.73828 16.8952L9.73984 16.8972C10.2566 17.7527 11.1281 18.1804 11.9996 18.1808C12.8714 18.1812 13.7437 17.7538 14.2613 16.898L14.1078 16.1118C13.4427 16.4195 12.7175 16.5848 11.9965 16.5805C11.2566 16.5785 10.5435 16.4183 9.89074 16.1156Z" fill="url(#paint0_linear_1_20877)"/>
<path d="M7.95646 10.5064V11.1031C7.95381 13.4046 9.69894 15.4029 12.0015 15.409C14.2357 15.409 16.0465 13.4812 16.0465 11.1031V10.5064C16.8991 10.454 17.5746 9.74598 17.5746 8.88037C17.5746 8.01436 16.9003 7.28015 16.0465 7.25394C15.4623 7.23601 14.9032 7.01449 14.4997 6.59145L13.5048 5.54834C12.4917 6.61524 11.029 7.25703 9.52094 7.25394H7.95646C7.10386 7.30672 6.42871 8.01436 6.42871 8.88037C6.42875 9.74598 7.10386 10.4536 7.95646 10.5064Z" fill="url(#paint1_linear_1_20877)"/>
<path d="M7.88268 6.08279C7.95444 6.0776 9.44406 6.08236 9.53039 6.08057C10.6889 6.08057 11.8565 5.57936 12.6536 4.73988L13.5014 3.84692L15.3462 5.78104C15.511 5.95717 15.8215 6.08092 16.117 6.08275C16.424 6.08463 16.7158 6.17025 16.9871 6.27947V5.45085C16.9871 3.229 14.918 1.58605 12.754 2.08995L10.5259 2.6087C9.33848 2.87877 8.10252 2.63209 7.08413 1.99855C6.46145 3.37861 6.30801 4.97695 6.63891 6.46384C7.00726 6.2467 7.43011 6.11564 7.88268 6.08279Z" fill="url(#paint2_linear_1_20877)"/>
<path d="M20.9845 22.0005L20.3494 20.1353C19.9951 19.0943 19.1525 18.2936 18.0951 17.992L15.4278 17.2319C14.7514 18.5209 13.4543 19.3607 11.9974 19.3537C10.2617 19.3241 9.36097 18.4423 8.51454 17.2453L5.90074 17.9916C4.8449 18.2932 4.0035 19.0932 3.64882 20.1326L3.01172 22.0005H6.2773V19.9627H7.44916V22.0005H16.5471V19.9627H17.719V22.0005H20.9845Z" fill="url(#paint3_linear_1_20877)"/>
<defs>
<linearGradient id="paint0_linear_1_20877" x1="11.9998" y1="16.1118" x2="11.9998" y2="18.1808" gradientUnits="userSpaceOnUse">
<stop stop-color="#159645"/>
<stop offset="1" stop-color="#88C342"/>
</linearGradient>
<linearGradient id="paint1_linear_1_20877" x1="12.0017" y1="5.54834" x2="12.0017" y2="15.409" gradientUnits="userSpaceOnUse">
<stop stop-color="#159645"/>
<stop offset="1" stop-color="#88C342"/>
</linearGradient>
<linearGradient id="paint2_linear_1_20877" x1="11.7279" y1="1.99854" x2="11.7279" y2="6.46384" gradientUnits="userSpaceOnUse">
<stop stop-color="#159645"/>
<stop offset="1" stop-color="#88C342"/>
</linearGradient>
<linearGradient id="paint3_linear_1_20877" x1="11.9981" y1="17.2319" x2="11.9981" y2="22.0005" gradientUnits="userSpaceOnUse">
<stop stop-color="#159645"/>
<stop offset="1" stop-color="#88C342"/>
</linearGradient>
</defs>
</svg>
