<svg width="21" height="21" viewBox="0 0 21 21" fill="none" xmlns="http://www.w3.org/2000/svg">
<path d="M16.1159 6.76495C16.1159 6.716 16.11 6.66672 16.0976 6.61816C15.7087 5.09107 14.6669 3.8436 13.2867 3.15772V4.36816C13.2867 4.69698 13.0204 4.96359 12.6913 4.96359C12.3622 4.96359 12.0959 4.69698 12.0959 4.36816V2.74905V2.58188C12.0959 2.25302 11.8293 1.98645 11.5004 1.98645H10.3096C9.98073 1.98645 9.71416 2.25302 9.71416 2.58188V2.74898V4.36816C9.71416 4.69698 9.44756 4.96359 9.11873 4.96359C8.78991 4.96359 8.52331 4.69698 8.52331 4.36816V3.15772C7.14282 3.84356 6.101 5.09107 5.71218 6.61816C5.69983 6.66675 5.69543 6.71589 5.69772 6.76459C5.27441 6.83469 4.95074 7.19982 4.95074 7.64301C4.95074 8.13628 5.35062 8.53615 5.84389 8.53615H15.9661C16.4594 8.53615 16.8593 8.13628 16.8593 7.64301C16.8593 7.20105 16.5375 6.83651 16.1159 6.76495Z" fill="url(#paint0_linear_582_14814)"/>
<path d="M15.073 9.72711H6.73706V10.3225C6.73706 11.4592 7.19551 12.4901 7.93591 13.2428C7.93402 13.262 7.92791 13.2801 7.92791 13.2997V14.3021L10.8902 15.6186L13.8822 14.1225V13.2997C13.8822 13.2801 13.8761 13.2619 13.8742 13.2427C14.6145 12.49 15.073 11.4592 15.073 10.3225V9.72711Z" fill="url(#paint1_linear_582_14814)"/>
<path d="M7.33267 18.6584H14.4778V15.1562L11.1715 16.8093C11.0878 16.8512 10.9965 16.8721 10.9052 16.8721C10.823 16.8721 10.7404 16.855 10.6633 16.8207L7.33267 15.3404V18.6584Z" fill="url(#paint2_linear_582_14814)"/>
<path d="M6.14172 15.1525C4.7238 15.5868 3.49287 16.4969 2.66917 17.7327C2.54736 17.9152 2.53602 18.1502 2.63952 18.3438C2.74331 18.5374 2.94508 18.6584 3.16459 18.6584H6.14172V15.1525Z" fill="url(#paint3_linear_582_14814)"/>
<path d="M19.141 17.7328C18.3174 16.497 17.0865 15.5871 15.6684 15.1527V18.6585H18.6456C18.8654 18.6585 19.0671 18.5375 19.1706 18.3439C19.2741 18.1503 19.2625 17.9154 19.141 17.7328Z" fill="url(#paint4_linear_582_14814)"/>
<defs>
<linearGradient id="paint0_linear_582_14814" x1="16.8593" y1="5.2613" x2="4.95074" y2="5.2613" gradientUnits="userSpaceOnUse">
<stop stop-color="#159644"/>
<stop offset="1" stop-color="#87C242"/>
</linearGradient>
<linearGradient id="paint1_linear_582_14814" x1="15.073" y1="12.6728" x2="6.73706" y2="12.6728" gradientUnits="userSpaceOnUse">
<stop stop-color="#159644"/>
<stop offset="1" stop-color="#87C242"/>
</linearGradient>
<linearGradient id="paint2_linear_582_14814" x1="14.4778" y1="16.9073" x2="7.33267" y2="16.9073" gradientUnits="userSpaceOnUse">
<stop stop-color="#159644"/>
<stop offset="1" stop-color="#87C242"/>
</linearGradient>
<linearGradient id="paint3_linear_582_14814" x1="6.14172" y1="16.9054" x2="2.56915" y2="16.9054" gradientUnits="userSpaceOnUse">
<stop stop-color="#159644"/>
<stop offset="1" stop-color="#87C242"/>
</linearGradient>
<linearGradient id="paint4_linear_582_14814" x1="19.2409" y1="16.9056" x2="15.6684" y2="16.9056" gradientUnits="userSpaceOnUse">
<stop stop-color="#159644"/>
<stop offset="1" stop-color="#87C242"/>
</linearGradient>
</defs>
</svg>
