<svg width="21" height="21" viewBox="0 0 21 21" fill="none" xmlns="http://www.w3.org/2000/svg">
<path fill-rule="evenodd" clip-rule="evenodd" d="M6.88454 1.98651H14.9179C16.6929 1.98651 18.1345 3.43651 18.1429 5.20318V16.9448C18.1429 18.4532 17.0679 19.0865 15.7512 18.3532L11.6845 16.0948C11.2595 15.8532 10.5595 15.8532 10.1262 16.0948L6.05954 18.3532C4.74288 19.0782 3.66788 18.4448 3.66788 16.9448V5.20318C3.66788 3.43651 5.10954 1.98651 6.88454 1.98651ZM7.13012 7.75434C7.13012 10.4045 9.58345 11.9682 10.6814 12.343C10.8101 12.3884 11.0221 12.3884 11.1509 12.343C12.2488 11.9682 14.7021 10.4045 14.7021 7.75434C14.7021 6.58446 13.7594 5.63796 12.5971 5.63796C11.9118 5.63796 11.2985 5.97113 10.9161 6.48603C10.5337 5.97113 9.92419 5.63796 9.23514 5.63796C8.07283 5.63796 7.13012 6.58446 7.13012 7.75434Z" fill="url(#paint0_linear_582_14824)"/>
<defs>
<linearGradient id="paint0_linear_582_14824" x1="18.1429" y1="10.3225" x2="3.66788" y2="10.3225" gradientUnits="userSpaceOnUse">
<stop stop-color="#159645"/>
<stop offset="1" stop-color="#88C342"/>
</linearGradient>
</defs>
</svg>
