<svg width="21" height="21" viewBox="0 0 21 21" fill="none" xmlns="http://www.w3.org/2000/svg">
<path d="M7.05844 17.4602C6.90668 17.4601 6.75911 17.4104 6.63831 17.3185C6.51752 17.2266 6.43017 17.0977 6.38961 16.9514C6.34905 16.8052 6.35753 16.6497 6.41374 16.5087C6.46996 16.3677 6.57081 16.2491 6.70087 16.1709C9.1608 14.6934 9.1608 11.5204 9.1608 9.62495C9.1608 9.07252 9.38025 8.54272 9.77087 8.1521C10.1615 7.76148 10.6913 7.54203 11.2437 7.54203C11.7961 7.54203 12.3259 7.76148 12.7166 8.1521C13.1072 8.54272 13.3266 9.07252 13.3266 9.62495C13.3266 9.80909 13.2535 9.98569 13.1233 10.1159C12.9931 10.2461 12.8165 10.3193 12.6323 10.3193C12.4482 10.3193 12.2716 10.2461 12.1414 10.1159C12.0112 9.98569 11.938 9.80909 11.938 9.62495C11.938 9.4408 11.8649 9.26421 11.7347 9.134C11.6045 9.00379 11.4279 8.93064 11.2437 8.93064C11.0596 8.93064 10.883 9.00379 10.7528 9.134C10.6226 9.26421 10.5494 9.4408 10.5494 9.62495C10.5494 11.6711 10.5494 15.4807 7.41531 17.3616C7.30747 17.4262 7.18413 17.4602 7.05844 17.4602ZM10.5043 18.4468C12.0887 16.8499 13.0142 14.6045 13.2544 11.7669C13.2625 11.6759 13.2526 11.5841 13.2251 11.497C13.1977 11.4098 13.1533 11.3289 13.0946 11.2589C13.0358 11.1889 12.9638 11.1312 12.8827 11.0891C12.8016 11.047 12.713 11.0213 12.6219 11.0136C12.5308 11.0042 12.4387 11.0133 12.3512 11.0403C12.2637 11.0673 12.1825 11.1116 12.1125 11.1706C12.0424 11.2296 11.985 11.3021 11.9436 11.3838C11.9022 11.4655 11.8776 11.5547 11.8714 11.6461C11.6554 14.1851 10.8861 16.0896 9.51906 17.465C9.38924 17.5957 9.31664 17.7726 9.31722 17.9567C9.31781 18.1409 9.39154 18.3173 9.52218 18.4471C9.65283 18.577 9.8297 18.6496 10.0139 18.649C10.1981 18.6484 10.3745 18.5747 10.5043 18.444V18.4468ZM14.1147 18.3177C14.5358 17.6179 14.8865 16.8781 15.1617 16.1091C15.2192 15.9371 15.2071 15.7494 15.1281 15.5862C15.049 15.423 14.9093 15.2972 14.7387 15.2357C14.568 15.1742 14.3802 15.1819 14.2151 15.2571C14.0501 15.3324 13.9211 15.4692 13.8557 15.6383C13.6112 16.3202 13.3001 16.9762 12.9267 17.597C12.8794 17.675 12.8479 17.7615 12.834 17.8517C12.8202 17.9419 12.8242 18.0339 12.8459 18.1225C12.8676 18.2111 12.9065 18.2946 12.9605 18.3682C13.0144 18.4417 13.0823 18.504 13.1603 18.5513C13.3179 18.6469 13.5069 18.6759 13.6859 18.6321C13.7745 18.6104 13.858 18.5715 13.9316 18.5175C14.0051 18.4636 14.0673 18.3957 14.1147 18.3177ZM15.7567 13.9234C16.0139 12.5055 16.1302 11.0657 16.1039 9.62495C16.1032 8.64132 15.8041 7.68105 15.2461 6.87102C14.6881 6.061 13.8974 5.43936 12.9786 5.08824C12.0598 4.73713 11.056 4.67307 10.1 4.90454C9.14402 5.13601 8.28075 5.6521 7.6243 6.38462C7.56037 6.45197 7.51059 6.53146 7.47793 6.61839C7.44526 6.70531 7.43036 6.79791 7.43412 6.8907C7.43787 6.98348 7.4602 7.07457 7.49978 7.15858C7.53937 7.24258 7.5954 7.31779 7.66456 7.37975C7.73373 7.44172 7.81462 7.48918 7.90245 7.51933C7.99028 7.54947 8.08327 7.5617 8.17591 7.55527C8.26855 7.54884 8.35896 7.5239 8.44178 7.48191C8.52461 7.43992 8.59818 7.38175 8.65812 7.31083C9.12697 6.78751 9.74358 6.41879 10.4265 6.25338C11.1093 6.08797 11.8263 6.13366 12.4827 6.38442C13.139 6.63518 13.7038 7.0792 14.1025 7.65779C14.5011 8.23639 14.7148 8.92233 14.7152 9.62495C14.7408 10.9766 14.6334 12.3275 14.3945 13.6582C14.3594 13.8388 14.3975 14.026 14.5003 14.1785C14.6032 14.3311 14.7624 14.4366 14.943 14.4719C14.9871 14.4807 15.032 14.4851 15.077 14.4851C15.2378 14.4847 15.3935 14.4284 15.5175 14.326C15.6414 14.2236 15.726 14.0813 15.7567 13.9234ZM7.77219 9.62495C7.77199 9.43116 7.78801 9.2377 7.82009 9.04659C7.84083 8.95459 7.8426 8.85932 7.8253 8.76661C7.808 8.6739 7.77199 8.58569 7.71948 8.50735C7.66696 8.42902 7.59904 8.3622 7.51985 8.31098C7.44066 8.25976 7.35187 8.22521 7.25889 8.20944C7.1659 8.19366 7.07068 8.197 6.97903 8.21924C6.88738 8.24148 6.80123 8.28216 6.72582 8.3388C6.65041 8.39544 6.58732 8.46684 6.54042 8.54866C6.49352 8.63048 6.46377 8.721 6.45301 8.81469C6.40717 9.08235 6.38395 9.35339 6.38358 9.62495C6.38358 12.85 5.44904 14.4851 3.60635 14.4851C3.42221 14.4851 3.24561 14.5582 3.11541 14.6884C2.9852 14.8187 2.91205 14.9952 2.91205 15.1794C2.91205 15.3635 2.9852 15.5401 3.11541 15.6703C3.24561 15.8005 3.42221 15.8737 3.60635 15.8737C6.29262 15.8737 7.77219 13.6519 7.77219 9.62495ZM17.2842 18.2441C18.4268 15.5183 18.9713 12.5791 18.8811 9.62495C18.8843 8.47165 18.623 7.33298 18.1173 6.29644C18.0774 6.21439 18.0218 6.14099 17.9535 6.08044C17.8853 6.01989 17.8058 5.97338 17.7195 5.94356C17.6333 5.91374 17.542 5.9012 17.451 5.90665C17.3599 5.9121 17.2708 5.93544 17.1887 5.97533C17.1066 6.01522 17.0332 6.07088 16.9727 6.13914C16.9122 6.20739 16.8656 6.28691 16.8358 6.37314C16.806 6.45937 16.7935 6.55063 16.7989 6.64171C16.8044 6.73279 16.8277 6.8219 16.8676 6.90396C17.2807 7.75141 17.4945 8.68216 17.4925 9.62495C17.5799 12.3805 17.0783 15.1229 16.0212 17.6692C15.9836 17.7523 15.9627 17.8421 15.9598 17.9333C15.9569 18.0245 15.972 18.1154 16.0042 18.2008C16.0365 18.2862 16.0852 18.3643 16.1477 18.4309C16.2102 18.4974 16.2852 18.5509 16.3684 18.5884C16.4583 18.6298 16.5562 18.6511 16.6551 18.6509C16.7879 18.6504 16.9177 18.6117 17.0292 18.5396C17.1407 18.4675 17.2292 18.3649 17.2842 18.2441ZM4.99496 11.7079V9.62495C4.9968 7.96824 5.65574 6.37991 6.82721 5.20844C7.99868 4.03697 9.58701 3.37803 11.2437 3.3762C12.5965 3.37169 13.9135 3.81068 14.993 4.62595C15.1403 4.73643 15.3254 4.78387 15.5077 4.75783C15.69 4.73179 15.8545 4.6344 15.965 4.48708C16.0755 4.33977 16.1229 4.1546 16.0969 3.97231C16.0708 3.79002 15.9734 3.62554 15.8261 3.51506C14.5065 2.51902 12.897 1.98253 11.2437 1.98758C9.21889 1.98997 7.27769 2.79539 5.84592 4.22715C4.41416 5.65892 3.60874 7.60013 3.60635 9.62495V11.7079C3.60635 11.892 3.6795 12.0686 3.80971 12.1988C3.93992 12.329 4.11652 12.4022 4.30066 12.4022C4.4848 12.4022 4.6614 12.329 4.79161 12.1988C4.92181 12.0686 4.99496 11.892 4.99496 11.7079Z" fill="url(#paint0_linear_582_14774)"/>
<defs>
<linearGradient id="paint0_linear_582_14774" x1="18.8907" y1="10.3198" x2="2.91205" y2="10.3198" gradientUnits="userSpaceOnUse">
<stop stop-color="#159646"/>
<stop offset="1" stop-color="#88C342"/>
</linearGradient>
</defs>
</svg>
