<svg width="21" height="21" viewBox="0 0 21 21" fill="none" xmlns="http://www.w3.org/2000/svg">
<path d="M7.2769 17.7449C7.2519 17.7449 7.21857 17.7616 7.19357 17.7616C5.5769 16.9616 4.26024 15.6366 3.4519 14.0199C3.4519 13.9949 3.46857 13.9616 3.46857 13.9366C4.48524 14.2366 5.53524 14.4616 6.5769 14.6366C6.76024 15.6866 6.9769 16.7283 7.2769 17.7449Z" fill="url(#paint0_linear_582_14870)"/>
<path d="M18.3519 14.0283C17.5269 15.6866 16.1519 17.0283 14.4769 17.8366C14.7936 16.7783 15.0602 15.7116 15.2352 14.6366C16.2852 14.4616 17.3186 14.2366 18.3352 13.9366C18.3269 13.9699 18.3519 14.0033 18.3519 14.0283Z" fill="url(#paint1_linear_582_14870)"/>
<path d="M18.4186 6.74483C17.3686 6.42816 16.3102 6.16983 15.2352 5.9865C15.0602 4.91149 14.8019 3.84483 14.4769 2.80316C16.2019 3.62816 17.5936 5.01983 18.4186 6.74483Z" fill="url(#paint2_linear_582_14870)"/>
<path d="M7.27683 2.89487C6.97683 3.91154 6.76016 4.94487 6.58516 5.99487C5.51016 6.16154 4.4435 6.42821 3.38516 6.74487C4.1935 5.06987 5.53516 3.69487 7.1935 2.86987C7.2185 2.86987 7.25183 2.89487 7.27683 2.89487Z" fill="url(#paint3_linear_582_14870)"/>
<path d="M13.8104 5.81151C11.8771 5.59484 9.92708 5.59484 7.99374 5.81151C8.20208 4.66984 8.46874 3.52818 8.84374 2.42818C8.86041 2.36151 8.85208 2.31151 8.86041 2.24484C9.51874 2.08651 10.1937 1.98651 10.9021 1.98651C11.6021 1.98651 12.2854 2.08651 12.9354 2.24484C12.9437 2.31151 12.9437 2.36151 12.9604 2.42818C13.3354 3.53651 13.6021 4.66984 13.8104 5.81151Z" fill="url(#paint4_linear_582_14870)"/>
<path d="M6.39351 13.2282C5.24351 13.0198 4.11018 12.7532 3.01018 12.3782C2.94351 12.3615 2.89351 12.3698 2.82685 12.3615C2.66851 11.7032 2.56851 11.0282 2.56851 10.3198C2.56851 9.61983 2.66851 8.9365 2.82685 8.2865C2.89351 8.27817 2.94351 8.27817 3.01018 8.2615C4.11851 7.89483 5.24351 7.61983 6.39351 7.4115C6.18518 9.34483 6.18518 11.2948 6.39351 13.2282Z" fill="url(#paint5_linear_582_14870)"/>
<path d="M19.2353 10.3198C19.2353 11.0282 19.1353 11.7032 18.977 12.3615C18.9103 12.3698 18.8603 12.3615 18.7936 12.3782C17.6853 12.7448 16.552 13.0198 15.4103 13.2282C15.627 11.2948 15.627 9.34483 15.4103 7.4115C16.552 7.61983 17.6936 7.8865 18.7936 8.2615C18.8603 8.27817 18.9103 8.2865 18.977 8.2865C19.1353 8.94483 19.2353 9.61983 19.2353 10.3198Z" fill="url(#paint6_linear_582_14870)"/>
<path d="M13.8104 14.8281C13.6021 15.9781 13.3354 17.1114 12.9604 18.2114C12.9437 18.2781 12.9437 18.3281 12.9354 18.3947C12.2854 18.5531 11.6021 18.6531 10.9021 18.6531C10.1937 18.6531 9.51874 18.5531 8.86041 18.3947C8.85208 18.3281 8.86041 18.2781 8.84374 18.2114C8.47708 17.1031 8.20208 15.9781 7.99374 14.8281C8.96041 14.9364 9.92708 15.0114 10.9021 15.0114C11.8771 15.0114 12.8521 14.9364 13.8104 14.8281Z" fill="url(#paint7_linear_582_14870)"/>
<path d="M14.038 13.456C11.9537 13.7189 9.84998 13.7189 7.76574 13.456C7.50277 11.3717 7.50277 9.26798 7.76574 7.18374C9.84998 6.92077 11.9537 6.92077 14.038 7.18374C14.3009 9.26798 14.3009 11.3717 14.038 13.456Z" fill="url(#paint8_linear_582_14870)"/>
<defs>
<linearGradient id="paint0_linear_582_14870" x1="7.2769" y1="15.8491" x2="3.4519" y2="15.8491" gradientUnits="userSpaceOnUse">
<stop stop-color="#159645"/>
<stop offset="1" stop-color="#88C342"/>
</linearGradient>
<linearGradient id="paint1_linear_582_14870" x1="18.3519" y1="15.8866" x2="14.4769" y2="15.8866" gradientUnits="userSpaceOnUse">
<stop stop-color="#159645"/>
<stop offset="1" stop-color="#88C342"/>
</linearGradient>
<linearGradient id="paint2_linear_582_14870" x1="18.4186" y1="4.77399" x2="14.4769" y2="4.77399" gradientUnits="userSpaceOnUse">
<stop stop-color="#159645"/>
<stop offset="1" stop-color="#88C342"/>
</linearGradient>
<linearGradient id="paint3_linear_582_14870" x1="7.27683" y1="4.80737" x2="3.38516" y2="4.80737" gradientUnits="userSpaceOnUse">
<stop stop-color="#159645"/>
<stop offset="1" stop-color="#88C342"/>
</linearGradient>
<linearGradient id="paint4_linear_582_14870" x1="13.8104" y1="3.89901" x2="7.99374" y2="3.89901" gradientUnits="userSpaceOnUse">
<stop stop-color="#159645"/>
<stop offset="1" stop-color="#88C342"/>
</linearGradient>
<linearGradient id="paint5_linear_582_14870" x1="6.39351" y1="10.3198" x2="2.56851" y2="10.3198" gradientUnits="userSpaceOnUse">
<stop stop-color="#159645"/>
<stop offset="1" stop-color="#88C342"/>
</linearGradient>
<linearGradient id="paint6_linear_582_14870" x1="19.2353" y1="10.3198" x2="15.4103" y2="10.3198" gradientUnits="userSpaceOnUse">
<stop stop-color="#159645"/>
<stop offset="1" stop-color="#88C342"/>
</linearGradient>
<linearGradient id="paint7_linear_582_14870" x1="13.8104" y1="16.7406" x2="7.99374" y2="16.7406" gradientUnits="userSpaceOnUse">
<stop stop-color="#159645"/>
<stop offset="1" stop-color="#88C342"/>
</linearGradient>
<linearGradient id="paint8_linear_582_14870" x1="14.2352" y1="10.3198" x2="7.56851" y2="10.3198" gradientUnits="userSpaceOnUse">
<stop stop-color="#159645"/>
<stop offset="1" stop-color="#88C342"/>
</linearGradient>
</defs>
</svg>
