<svg width="21" height="21" viewBox="0 0 21 21" fill="none" xmlns="http://www.w3.org/2000/svg">
<path d="M18.0888 7.36171C17.2138 3.51171 13.8555 1.77838 10.9055 1.77838C10.9055 1.77838 10.9055 1.77838 10.8972 1.77838C7.95551 1.77838 4.58884 3.50338 3.71384 7.35338C2.73884 11.6534 5.37217 15.295 7.75551 17.5867C8.63884 18.4367 9.77217 18.8617 10.9055 18.8617C12.0388 18.8617 13.1722 18.4367 14.0472 17.5867C16.4305 15.295 19.0638 11.6617 18.0888 7.36171ZM10.9055 11.5367C9.45551 11.5367 8.28051 10.3617 8.28051 8.91172C8.28051 7.46172 9.45551 6.28671 10.9055 6.28671C12.3555 6.28671 13.5305 7.46172 13.5305 8.91172C13.5305 10.3617 12.3555 11.5367 10.9055 11.5367Z" fill="url(#paint0_linear_582_14829)"/>
<defs>
<linearGradient id="paint0_linear_582_14829" x1="18.2972" y1="10.32" x2="3.50552" y2="10.32" gradientUnits="userSpaceOnUse">
<stop stop-color="#159647"/>
<stop offset="1" stop-color="#8AC443"/>
</linearGradient>
</defs>
</svg>
