<svg width="21" height="21" viewBox="0 0 21 21" fill="none" xmlns="http://www.w3.org/2000/svg">
<path d="M16.5264 6.98669V8.73669C16.1597 8.68669 15.743 8.66169 15.2764 8.65336V6.98669C15.2764 4.36169 14.5347 2.61169 10.9014 2.61169C7.26803 2.61169 6.52637 4.36169 6.52637 6.98669V8.65336C6.0597 8.66169 5.64303 8.68669 5.27637 8.73669V6.98669C5.27637 4.57003 5.8597 1.36169 10.9014 1.36169C15.943 1.36169 16.5264 4.57003 16.5264 6.98669Z" fill="url(#paint0_linear_582_14769)"/>
<path d="M16.5264 8.73629C16.1597 8.68629 15.743 8.66129 15.2764 8.65295H6.52636C6.05969 8.66129 5.64302 8.68629 5.27636 8.73629C3.15136 8.99462 2.56802 10.0363 2.56802 12.8196V14.4863C2.56802 17.8196 3.40136 18.653 6.73469 18.653H15.068C18.4014 18.653 19.2347 17.8196 19.2347 14.4863V12.8196C19.2347 10.0363 18.6514 8.99462 16.5264 8.73629ZM8.15969 14.2446C8.00136 14.3946 7.78469 14.4863 7.56802 14.4863C7.45969 14.4863 7.35136 14.4613 7.25136 14.4196C7.14302 14.378 7.05969 14.3196 6.97636 14.2446C6.82636 14.0863 6.73469 13.8696 6.73469 13.653C6.73469 13.5446 6.75969 13.4363 6.80136 13.3363C6.84302 13.2363 6.90136 13.1446 6.97636 13.0613C7.05969 12.9863 7.14302 12.928 7.25136 12.8863C7.55969 12.753 7.92636 12.828 8.15969 13.0613C8.23469 13.1446 8.29302 13.2363 8.33469 13.3363C8.37636 13.4363 8.40136 13.5446 8.40136 13.653C8.40136 13.8696 8.30969 14.0863 8.15969 14.2446ZM11.668 13.9696C11.6264 14.0696 11.568 14.1613 11.493 14.2446C11.3347 14.3946 11.118 14.4863 10.9014 14.4863C10.6764 14.4863 10.468 14.3946 10.3097 14.2446C10.2347 14.1613 10.1764 14.0696 10.1347 13.9696C10.093 13.8696 10.068 13.7613 10.068 13.653C10.068 13.428 10.1597 13.2196 10.3097 13.0613C10.618 12.753 11.1764 12.753 11.493 13.0613C11.643 13.2196 11.7347 13.428 11.7347 13.653C11.7347 13.7613 11.7097 13.8696 11.668 13.9696ZM14.8264 14.2446C14.668 14.3946 14.4514 14.4863 14.2347 14.4863C14.018 14.4863 13.8014 14.3946 13.643 14.2446C13.493 14.0863 13.4014 13.878 13.4014 13.653C13.4014 13.428 13.493 13.2196 13.643 13.0613C13.9597 12.753 14.518 12.753 14.8264 13.0613C14.8597 13.103 14.893 13.1446 14.9264 13.1946C14.9597 13.2363 14.9847 13.2863 15.0014 13.3363C15.0264 13.3863 15.043 13.4363 15.0514 13.4863C15.0597 13.5446 15.068 13.603 15.068 13.653C15.068 13.8696 14.9764 14.0863 14.8264 14.2446Z" fill="url(#paint1_linear_582_14769)"/>
<defs>
<linearGradient id="paint0_linear_582_14769" x1="16.5264" y1="5.04919" x2="5.27637" y2="5.04919" gradientUnits="userSpaceOnUse">
<stop stop-color="#159646"/>
<stop offset="1" stop-color="#89C442"/>
</linearGradient>
<linearGradient id="paint1_linear_582_14769" x1="19.2347" y1="13.653" x2="2.56802" y2="13.653" gradientUnits="userSpaceOnUse">
<stop stop-color="#159646"/>
<stop offset="1" stop-color="#89C442"/>
</linearGradient>
</defs>
</svg>
