<svg width="25" height="25" viewBox="0 0 25 25" fill="none" xmlns="http://www.w3.org/2000/svg">
<path d="M17.7019 2.92139H15.1019C11.9019 2.92139 9.90186 4.92139 9.90186 8.12139V12.1714H16.1519C16.5619 12.1714 16.9019 12.5114 16.9019 12.9214C16.9019 13.3314 16.5619 13.6714 16.1519 13.6714H9.90186V17.7214C9.90186 20.9214 11.9019 22.9214 15.1019 22.9214H17.6919C20.8919 22.9214 22.8919 20.9214 22.8919 17.7214V8.12139C22.9019 4.92139 20.9019 2.92139 17.7019 2.92139Z" fill="#868A96"/>
<path d="M5.46186 12.1714L7.53186 10.1014C7.68186 9.95135 7.75186 9.76135 7.75186 9.57135C7.75186 9.38135 7.68186 9.18135 7.53186 9.04135C7.24186 8.75135 6.76186 8.75135 6.47186 9.04135L3.12186 12.3914C2.83186 12.6814 2.83186 13.1614 3.12186 13.4514L6.47186 16.8014C6.76186 17.0914 7.24186 17.0914 7.53186 16.8014C7.82186 16.5114 7.82186 16.0314 7.53186 15.7414L5.46186 13.6714H9.90186V12.1714H5.46186Z" fill="#868A96"/>
</svg>
