<svg width="21" height="22" viewBox="0 0 21 22" fill="none" xmlns="http://www.w3.org/2000/svg">
<path d="M14.2259 3.25366H5.91775C3.4253 3.25366 1.76367 4.58042 1.76367 7.67618V13.8677C1.76367 16.9635 3.4253 18.2902 5.91775 18.2902H14.2259C16.7184 18.2902 18.38 16.9635 18.38 13.8677V7.67618C18.38 4.58042 16.7184 3.25366 14.2259 3.25366ZM5.29464 12.9832C5.29464 13.3458 5.01216 13.6466 4.67153 13.6466C4.33089 13.6466 4.04841 13.3458 4.04841 12.9832V8.56068C4.04841 8.19803 4.33089 7.8973 4.67153 7.8973C5.01216 7.8973 5.29464 8.19803 5.29464 8.56068V12.9832ZM10.0718 13.4254C8.69267 13.4254 7.57938 12.2402 7.57938 10.7719C7.57938 9.30366 8.69267 8.11843 10.0718 8.11843C11.451 8.11843 12.5643 9.30366 12.5643 10.7719C12.5643 12.2402 11.451 13.4254 10.0718 13.4254ZM16.0952 12.9832C16.0952 13.3458 15.8128 13.6466 15.4721 13.6466C15.1315 13.6466 14.849 13.3458 14.849 12.9832V8.56068C14.849 8.19803 15.1315 7.8973 15.4721 7.8973C15.8128 7.8973 16.0952 8.19803 16.0952 8.56068V12.9832Z" fill="url(#paint0_linear_1_7697)"/>
<defs>
<linearGradient id="paint0_linear_1_7697" x1="18.38" y1="10.7719" x2="1.76367" y2="10.7719" gradientUnits="userSpaceOnUse">
<stop stop-color="#30A15A"/>
<stop offset="1" stop-color="#87C242"/>
</linearGradient>
</defs>
</svg>
