<svg width="21" height="21" viewBox="0 0 21 21" fill="none" xmlns="http://www.w3.org/2000/svg">
<path d="M15.0676 10.8238C13.818 10.8238 12.6998 11.3764 11.9363 12.2478L9.29185 10.6202C9.42725 10.2486 9.51285 9.85323 9.51285 9.43494C9.51285 9.16165 9.47367 8.89874 9.4139 8.64296L12.9291 7.02087C13.4382 7.64205 14.2017 8.04618 15.0678 8.04618C16.601 8.04618 17.8452 6.80259 17.8452 5.26879C17.8452 3.73499 16.6008 2.49139 15.0676 2.49139C13.5332 2.49139 12.2902 3.73499 12.2902 5.26879C12.2902 5.43816 12.3113 5.60168 12.3396 5.76312L8.82852 7.38378C8.1959 6.52593 7.18751 5.96308 6.04096 5.96308C4.12325 5.96329 2.56906 7.51727 2.56906 9.43498C2.56906 11.3527 4.12325 12.9069 6.04096 12.9069C7.03897 12.9069 7.93283 12.4796 8.5661 11.8043L11.2066 13.4291C11.0112 13.9118 10.9014 14.4373 10.9014 14.99C10.9014 17.2914 12.7662 19.1562 15.0676 19.1562C17.3678 19.1562 19.2338 17.2914 19.2338 14.99C19.2338 12.6886 17.3678 10.8238 15.0676 10.8238Z" fill="url(#paint0_linear_582_14748)"/>
<defs>
<linearGradient id="paint0_linear_582_14748" x1="19.2338" y1="10.8238" x2="2.56906" y2="10.8238" gradientUnits="userSpaceOnUse">
<stop stop-color="#159645"/>
<stop offset="1" stop-color="#88C342"/>
</linearGradient>
</defs>
</svg>
