<svg width="20" height="22" viewBox="0 0 20 22" fill="none" xmlns="http://www.w3.org/2000/svg">
<path d="M19.5742 15.5489C19.4147 15.2623 18.9661 14.8165 17.8494 15.0288C17.2313 15.1456 16.6032 15.1986 15.9751 15.1668C13.6522 15.0607 11.5485 13.925 10.083 12.1736C8.78691 10.6346 7.98927 8.62851 7.9793 6.46324C7.9793 5.25324 8.19869 4.0857 8.64733 2.98184C9.086 1.90982 8.77694 1.34728 8.5576 1.11377C8.3283 0.869647 7.78988 0.529998 6.73308 0.997015C2.65544 2.82263 0.133081 7.17438 0.432175 11.834C0.731268 16.2176 3.62251 19.9643 7.45091 21.376C8.36818 21.7157 9.33525 21.9173 10.3322 21.9598C10.4917 21.9704 10.6513 21.981 10.8108 21.981C14.1507 21.981 17.2812 20.304 19.2552 17.4488C19.9232 16.4617 19.7437 15.8355 19.5742 15.5489Z" fill="url(#paint0_linear_200_1752)"/>
<defs>
<linearGradient id="paint0_linear_200_1752" x1="10.0696" y1="0.76416" x2="10.0696" y2="21.981" gradientUnits="userSpaceOnUse">
<stop stop-color="#159645"/>
<stop offset="1" stop-color="#88C342"/>
</linearGradient>
</defs>
</svg>
