<svg width="25" height="25" viewBox="0 0 25 25" fill="none" xmlns="http://www.w3.org/2000/svg">
<path d="M18.6265 2.38672H6.62646C4.96646 2.38672 3.62646 3.71672 3.62646 5.35672V16.2667C3.62646 17.9067 4.96646 19.2367 6.62646 19.2367H7.38647C8.18647 19.2367 8.94647 19.5467 9.50646 20.1067L11.2165 21.7967C11.9965 22.5667 13.2665 22.5667 14.0465 21.7967L15.7565 20.1067C16.3165 19.5467 17.0865 19.2367 17.8765 19.2367H18.6265C20.2865 19.2367 21.6265 17.9067 21.6265 16.2667V5.35672C21.6265 3.71672 20.2865 2.38672 18.6265 2.38672ZM11.0065 13.3967C11.4165 13.3967 11.7565 13.7367 11.7565 14.1467C11.7565 14.5567 11.4165 14.8967 11.0065 14.8967H8.32646C7.88646 14.8967 7.47646 14.6867 7.21646 14.3267C6.96646 13.9867 6.90647 13.5667 7.02646 13.1667C7.37646 12.0967 8.23646 11.5167 8.99646 10.9967C9.79646 10.4567 10.2465 10.1167 10.2465 9.53672C10.2465 9.01672 9.82647 8.59672 9.30647 8.59672C8.78647 8.59672 8.37646 9.02672 8.37646 9.54672C8.37646 9.95672 8.03646 10.2967 7.62646 10.2967C7.21646 10.2967 6.87646 9.95672 6.87646 9.54672C6.87646 8.20672 7.96646 7.10672 9.31646 7.10672C10.6665 7.10672 11.7565 8.19672 11.7565 9.54672C11.7565 10.9567 10.6965 11.6767 9.84647 12.2567C9.31647 12.6167 8.81646 12.9567 8.56646 13.4067H11.0065V13.3967ZM17.6265 13.4667H17.4165V14.1567C17.4165 14.5667 17.0765 14.9067 16.6665 14.9067C16.2565 14.9067 15.9165 14.5667 15.9165 14.1567V13.4667H13.9565C13.9565 13.4667 13.9565 13.4667 13.9465 13.4667C13.4565 13.4667 13.0065 13.2067 12.7565 12.7867C12.5065 12.3567 12.5065 11.8267 12.7565 11.4067C13.4365 10.2367 14.2265 8.90672 14.9465 7.74672C15.2665 7.23672 15.8765 7.00672 16.4465 7.16672C17.0165 7.33672 17.4165 7.85672 17.4065 8.45672V11.9767H17.6265C18.0365 11.9767 18.3765 12.3167 18.3765 12.7267C18.3765 13.1367 18.0365 13.4667 17.6265 13.4667Z" fill="#868A96"/>
<path d="M15.9165 11.9666V9.02661C15.3265 9.98661 14.7165 11.0166 14.1665 11.9566H15.9165V11.9666Z" fill="#868A96"/>
</svg>
