<svg width="15" height="17" viewBox="0 0 15 17" fill="none" xmlns="http://www.w3.org/2000/svg">
<path d="M11.25 0C13.025 1.46076e-07 14.4663 1.45013 14.4746 3.2168V14.958C14.4746 16.4663 13.3997 17.0995 12.083 16.3662L8.0166 14.1084C7.5916 13.8667 6.89133 13.8667 6.45801 14.1084L2.3916 16.3662C1.07493 17.0912 0 16.458 0 14.958V3.2168C0 1.45013 1.4418 0 3.2168 0H11.25ZM8.92969 3.65234C8.24442 3.65234 7.63043 3.9851 7.24805 4.5C6.86565 3.9852 6.25636 3.65234 5.56738 3.65234C4.4051 3.65237 3.46289 4.59869 3.46289 5.76855C3.46305 8.4186 5.91577 9.98262 7.01367 10.3574C7.14241 10.4028 7.35472 10.4028 7.4834 10.3574C8.58134 9.98257 11.034 8.41854 11.0342 5.76855C11.0342 4.59878 10.0919 3.6525 8.92969 3.65234Z" fill="#8E8E93"/>
</svg>
