<svg width="21" height="21" viewBox="0 0 21 21" fill="none" xmlns="http://www.w3.org/2000/svg">
<path d="M15.034 9.1717C14.6672 9.1717 14.3771 8.87308 14.3771 8.51475C14.3771 8.19907 14.0614 7.54213 13.5325 6.9705C13.012 6.41593 12.4404 6.09173 11.9626 6.09173C11.5957 6.09173 11.3057 5.79311 11.3057 5.43478C11.3057 5.07644 11.6043 4.77783 11.9626 4.77783C12.8158 4.77783 13.7116 5.23855 14.4965 6.06613C15.2303 6.84252 15.6995 7.80661 15.6995 8.50622C15.6995 8.87308 15.4009 9.1717 15.034 9.1717Z" fill="#1E99D3"/>
<path d="M18.1133 9.17184C17.7464 9.17184 17.4564 8.87323 17.4564 8.5149C17.4564 5.48612 14.9907 3.02897 11.9704 3.02897C11.6036 3.02897 11.3135 2.73036 11.3135 2.37202C11.3135 2.01369 11.6036 1.70654 11.9619 1.70654C15.7159 1.70654 18.7702 4.76092 18.7702 8.5149C18.7702 8.87323 18.4716 9.17184 18.1133 9.17184Z" fill="#1E99D3"/>
<path d="M9.42829 12.7552L7.84991 14.3336C7.51717 14.6663 6.9882 14.6663 6.64693 14.3421C6.55308 14.2483 6.45923 14.1629 6.36538 14.0691C5.48661 13.1818 4.69315 12.2518 3.98501 11.2792C3.28541 10.3066 2.72231 9.33395 2.31279 8.36986C1.91179 7.39724 1.70703 6.46727 1.70703 5.57997C1.70703 4.99981 1.80941 4.44524 2.01418 3.93334C2.21894 3.4129 2.54315 2.93512 2.99533 2.50853C3.54136 1.97103 4.13859 1.70654 4.76994 1.70654C5.00883 1.70654 5.24772 1.75773 5.46101 1.86011C5.68284 1.9625 5.87907 2.11607 6.03264 2.33789L8.01201 5.12778C8.16558 5.34108 8.2765 5.53731 8.35328 5.72501C8.43007 5.90418 8.47273 6.08334 8.47273 6.24545C8.47273 6.45021 8.41301 6.65497 8.29356 6.8512C8.18265 7.04743 8.02054 7.2522 7.81578 7.45696L7.16737 8.13097C7.07352 8.22482 7.03086 8.33573 7.03086 8.47224C7.03086 8.54049 7.03939 8.60022 7.05645 8.66847C7.08205 8.73672 7.10764 8.78791 7.12471 8.83911C7.27828 9.12065 7.54276 9.48752 7.91816 9.93117C8.30209 10.3748 8.71162 10.827 9.15527 11.2792C9.24059 11.3645 9.33444 11.4498 9.41975 11.5351C9.76103 11.8679 9.76956 12.4139 9.42829 12.7552Z" fill="#1E99D3"/>
<path d="M18.7442 15.6391C18.7442 15.878 18.7016 16.1254 18.6163 16.3643C18.5907 16.4326 18.5651 16.5008 18.5309 16.5691C18.3859 16.8762 18.1982 17.1663 17.9508 17.4393C17.5327 17.9001 17.072 18.2328 16.5516 18.4461C16.543 18.4461 16.5345 18.4546 16.526 18.4546C16.0226 18.6594 15.4766 18.7703 14.8879 18.7703C14.0176 18.7703 13.0877 18.5655 12.1065 18.1475C11.1254 17.7294 10.1442 17.1663 9.17158 16.4582C8.83884 16.2108 8.50611 15.9633 8.19043 15.6989L10.9803 12.909C11.2192 13.0881 11.4325 13.2246 11.6117 13.3185C11.6543 13.3356 11.7055 13.3612 11.7652 13.3867C11.8335 13.4123 11.9018 13.4209 11.9785 13.4209C12.1236 13.4209 12.2345 13.3697 12.3283 13.2758L12.9768 12.636C13.19 12.4227 13.3948 12.2606 13.591 12.1582C13.7873 12.0387 13.9835 11.979 14.1968 11.979C14.3589 11.979 14.5295 12.0131 14.7172 12.0899C14.9049 12.1667 15.1012 12.2776 15.3145 12.4227L18.1385 14.4276C18.3603 14.5812 18.5139 14.7604 18.6077 14.9737C18.693 15.187 18.7442 15.4002 18.7442 15.6391Z" fill="#1E99D3"/>
</svg>
