<svg width="25" height="25" viewBox="0 0 25 25" fill="none" xmlns="http://www.w3.org/2000/svg">
<path d="M20.4165 9.5401C19.7465 8.8001 18.7365 8.3701 17.3365 8.2201V7.4601C17.3365 6.0901 16.7565 4.7701 15.7365 3.8501C14.7065 2.9101 13.3665 2.4701 11.9765 2.6001C9.58653 2.8301 7.57653 5.1401 7.57653 7.6401V8.2201C6.17653 8.3701 5.16653 8.8001 4.49653 9.5401C3.52653 10.6201 3.55653 12.0601 3.66653 13.0601L4.36653 18.6301C4.57653 20.5801 5.36653 22.5801 9.66653 22.5801H15.2465C19.5465 22.5801 20.3365 20.5801 20.5465 18.6401L21.2465 13.0501C21.3565 12.0601 21.3765 10.6201 20.4165 9.5401ZM12.1165 3.9901C13.1165 3.9001 14.0665 4.2101 14.8065 4.8801C15.5365 5.5401 15.9465 6.4801 15.9465 7.4601V8.1601H8.96653V7.6401C8.96653 5.8601 10.4365 4.1501 12.1165 3.9901ZM8.87653 13.7301H8.86653C8.31653 13.7301 7.86653 13.2801 7.86653 12.7301C7.86653 12.1801 8.31653 11.7301 8.86653 11.7301C9.42653 11.7301 9.87653 12.1801 9.87653 12.7301C9.87653 13.2801 9.42653 13.7301 8.87653 13.7301ZM15.8765 13.7301H15.8665C15.3165 13.7301 14.8665 13.2801 14.8665 12.7301C14.8665 12.1801 15.3165 11.7301 15.8665 11.7301C16.4265 11.7301 16.8765 12.1801 16.8765 12.7301C16.8765 13.2801 16.4265 13.7301 15.8765 13.7301Z" fill="#868A96"/>
</svg>
