<svg width="31" height="31" viewBox="0 0 31 31" fill="none" xmlns="http://www.w3.org/2000/svg">
<path d="M9.44502 3.43286H7.07002C4.33252 3.43286 2.89502 4.87036 2.89502 7.59536V9.97036C2.89502 12.6954 4.33252 14.1329 7.05752 14.1329H9.43252C12.1575 14.1329 13.595 12.6954 13.595 9.97036V7.59536C13.6075 4.87036 12.17 3.43286 9.44502 3.43286Z" fill="white"/>
<path d="M23.7328 3.43286H21.3578C18.6328 3.43286 17.1953 4.87036 17.1953 7.59536V9.97036C17.1953 12.6954 18.6328 14.1329 21.3578 14.1329H23.7328C26.4578 14.1329 27.8953 12.6954 27.8953 9.97036V7.59536C27.8953 4.87036 26.4578 3.43286 23.7328 3.43286Z" fill="white"/>
<path d="M23.7328 17.7217H21.3578C18.6328 17.7217 17.1953 19.1592 17.1953 21.8842V24.2592C17.1953 26.9842 18.6328 28.4217 21.3578 28.4217H23.7328C26.4578 28.4217 27.8953 26.9842 27.8953 24.2592V21.8842C27.8953 19.1592 26.4578 17.7217 23.7328 17.7217Z" fill="white"/>
<path d="M9.44502 17.7217H7.07002C4.33252 17.7217 2.89502 19.1592 2.89502 21.8842V24.2592C2.89502 26.9967 4.33252 28.4342 7.05752 28.4342H9.43252C12.1575 28.4342 13.595 26.9967 13.595 24.2717V21.8967C13.6075 19.1592 12.17 17.7217 9.44502 17.7217Z" fill="white"/>
</svg>
