<svg width="41" height="43" viewBox="0 0 41 43" fill="none" xmlns="http://www.w3.org/2000/svg">
<path d="M20.9799 4.67164C21.6499 5.03685 22.1137 5.54092 22.3479 6.29228C22.4927 7.08902 22.3792 7.81063 21.9403 8.48539C21.7286 8.75909 21.592 8.88863 21.2673 9.02485C21.0724 9.13853 20.999 9.19283 20.9311 9.41451C20.9105 9.64397 20.9077 9.8674 20.911 10.0978C20.91 10.1812 20.909 10.2646 20.908 10.3506C20.9054 10.6168 20.9067 10.8827 20.9082 11.1489C20.9071 11.3295 20.9058 11.51 20.9042 11.6906C20.9008 12.1329 20.9007 12.5752 20.903 13.0176C20.9488 13.0174 20.9945 13.0173 21.0417 13.0171C22.1578 13.0134 23.2739 13.0106 24.3901 13.0089C24.9298 13.008 25.4696 13.0068 26.0094 13.0049C26.5306 13.0031 27.0518 13.0021 27.5731 13.0017C27.7716 13.0013 27.9701 13.0007 28.1686 12.9998C28.4474 12.9986 28.7262 12.9984 29.005 12.9985C29.0864 12.9979 29.1679 12.9973 29.2518 12.9967C30.2422 12.9997 31.0567 13.1676 31.7927 13.8732C32.3097 14.4263 32.5626 15.0526 32.5608 15.8159C32.5608 15.905 32.5608 15.9941 32.5608 16.0859C32.5603 16.1815 32.5599 16.2771 32.5595 16.3757C32.5593 16.5231 32.5593 16.5231 32.5591 16.6736C32.5587 16.9876 32.5576 17.3017 32.5566 17.6157C32.5562 17.8286 32.5558 18.0416 32.5555 18.2545C32.5546 18.7764 32.5532 19.2984 32.5515 19.8203C32.6118 19.8186 32.6721 19.8168 32.7342 19.815C33.0117 19.8079 33.2891 19.8036 33.5666 19.7993C33.6615 19.7965 33.7563 19.7937 33.854 19.7908C34.6867 19.7812 35.4617 19.9692 36.0788 20.5762C36.7391 21.3798 36.8552 22.2398 36.8527 23.2627C36.8531 23.3652 36.8535 23.4677 36.854 23.5732C36.8545 23.789 36.8544 24.0048 36.8537 24.2205C36.853 24.5479 36.8553 24.8751 36.858 25.2024C36.8581 25.4132 36.858 25.6239 36.8578 25.8347C36.8587 25.9312 36.8596 26.0276 36.8606 26.127C36.8523 27.1243 36.6506 27.9932 35.9564 28.7145C35.3844 29.2043 34.7887 29.4068 34.0495 29.4027C33.962 29.4025 33.8745 29.4022 33.7843 29.4019C33.6939 29.4012 33.6034 29.4005 33.5102 29.3998C33.4182 29.3994 33.3261 29.399 33.2313 29.3986C33.0047 29.3977 32.7781 29.3963 32.5515 29.3945C32.552 29.4474 32.5526 29.5002 32.5531 29.5547C32.5586 30.1079 32.5623 30.6611 32.565 31.2143C32.5662 31.4204 32.5679 31.6264 32.57 31.8325C32.573 32.1298 32.5744 32.4271 32.5755 32.7244C32.5768 32.8156 32.578 32.9068 32.5794 33.0007C32.5796 33.9997 32.3454 34.6835 31.6853 35.4152C31.0687 36.0208 30.275 36.164 29.4494 36.156C29.3226 36.1567 29.3226 36.1567 29.1932 36.1575C28.9124 36.1589 28.6317 36.1578 28.3509 36.1568C28.1486 36.1572 27.9462 36.1578 27.7439 36.1585C27.2529 36.1599 26.7619 36.1597 26.271 36.1587C25.8717 36.158 25.4724 36.1579 25.0731 36.1582C25.0161 36.1583 24.9591 36.1583 24.9004 36.1584C24.7846 36.1585 24.6688 36.1586 24.553 36.1587C23.469 36.1597 22.385 36.1586 21.3011 36.1568C20.3725 36.1553 19.4439 36.1555 18.5152 36.1571C17.4349 36.1589 16.3547 36.1596 15.2744 36.1586C15.159 36.1585 15.0437 36.1583 14.9283 36.1582C14.8716 36.1582 14.8148 36.1581 14.7563 36.1581C14.3579 36.1578 13.9594 36.1583 13.5609 36.1591C13.0239 36.1601 12.4869 36.1594 11.9498 36.1574C11.7531 36.157 11.5564 36.1571 11.3597 36.1579C11.0904 36.1588 10.8212 36.1576 10.552 36.156C10.4362 36.1571 10.4362 36.1571 10.3181 36.1582C9.44135 36.1477 8.74926 35.8529 8.11994 35.2321C7.64314 34.6674 7.43884 34.053 7.44059 33.3132C7.4406 33.2258 7.44061 33.1384 7.44061 33.0483C7.44104 32.9549 7.44146 32.8616 7.4419 32.7654C7.44201 32.6691 7.44213 32.5727 7.44225 32.4735C7.44271 32.1663 7.44374 31.8591 7.44478 31.5519C7.44519 31.3434 7.44557 31.1349 7.4459 30.9264C7.44681 30.4158 7.44818 29.9052 7.44991 29.3945C7.39456 29.3959 7.33922 29.3972 7.2822 29.3985C7.02707 29.4038 6.77196 29.4071 6.5168 29.4103C6.38626 29.4135 6.38626 29.4135 6.25308 29.4167C5.36404 29.4251 4.67082 29.2613 4.0046 28.6387C3.42699 28.0339 3.17681 27.3218 3.17106 26.4852C3.16988 26.3456 3.16988 26.3456 3.16868 26.2031C3.16833 26.1032 3.16798 26.0033 3.16762 25.9003C3.16715 25.7967 3.16668 25.693 3.1662 25.5862C3.16543 25.3668 3.16489 25.1475 3.16458 24.9282C3.16404 24.5944 3.16124 24.2606 3.15865 23.9269C3.15811 23.7133 3.15768 23.4998 3.15737 23.2863C3.15635 23.1873 3.15534 23.0882 3.1543 22.9861C3.15675 22.044 3.31918 21.3125 3.95845 20.6077C4.0625 20.5089 4.0625 20.5089 4.16866 20.4082C4.22957 20.3493 4.29047 20.2904 4.35323 20.2297C4.99741 19.7801 5.67244 19.7878 6.42964 19.8046C6.57724 19.8063 6.57724 19.8063 6.72781 19.808C6.96855 19.811 7.20921 19.8151 7.44991 19.8203C7.44918 19.7666 7.44845 19.7129 7.4477 19.6576C7.4404 19.0948 7.43547 18.5321 7.43188 17.9693C7.43024 17.7597 7.42801 17.5502 7.42515 17.3406C7.42114 17.0381 7.4193 16.7356 7.41786 16.4331C7.41532 16.2942 7.41532 16.2942 7.41273 16.1525C7.4125 15.3253 7.6009 14.4645 8.18819 13.8574C9.06868 13.1191 9.86643 13.004 10.9684 13.0081C11.0565 13.008 11.1446 13.008 11.2354 13.008C11.5252 13.0081 11.815 13.0087 12.1049 13.0094C12.3063 13.0095 12.5078 13.0097 12.7093 13.0097C13.2386 13.0101 13.7679 13.0109 14.2973 13.0118C14.8378 13.0127 15.3783 13.0131 15.9188 13.0135C16.9787 13.0144 18.0385 13.0158 19.0983 13.0176C19.1053 12.4885 19.1066 11.9597 19.1039 11.4306C19.1036 11.2507 19.1047 11.0708 19.1071 10.891C19.1103 10.6319 19.1088 10.3733 19.1064 10.1142C19.1094 9.99412 19.1094 9.99412 19.1125 9.8716C19.1076 9.63753 19.0952 9.45835 19.0163 9.23829C18.8398 9.067 18.6667 8.95185 18.4534 8.83304C18.0526 8.60755 17.8671 8.1487 17.6731 7.74232C17.5285 6.98781 17.5743 6.30071 17.9499 5.62696C18.6181 4.626 19.8495 4.18992 20.9799 4.67164Z" fill="#1E99D2"/>
<path d="M32.4692 19.8203C32.8212 19.8104 33.1732 19.8045 33.5253 19.7993C33.6241 19.7965 33.7229 19.7937 33.8246 19.7908C34.6699 19.7813 35.4513 19.9591 36.0786 20.5761C36.7389 21.3797 36.855 22.2397 36.8524 23.2627C36.8528 23.3651 36.8533 23.4676 36.8537 23.5732C36.8542 23.789 36.8541 24.0047 36.8534 24.2205C36.8527 24.5478 36.8551 24.875 36.8577 25.2023C36.8578 25.4131 36.8578 25.6239 36.8575 25.8347C36.8585 25.9311 36.8594 26.0276 36.8603 26.1269C36.8521 27.1243 36.6503 27.9932 35.9562 28.7144C35.3851 29.2035 34.7898 29.4048 34.0521 29.4057C33.965 29.4058 33.8779 29.4059 33.7881 29.406C33.698 29.4057 33.6079 29.4053 33.5151 29.405C33.4237 29.4053 33.3324 29.4056 33.2382 29.406C33.1515 29.4059 33.0648 29.4058 32.9755 29.4057C32.8563 29.4055 32.8563 29.4055 32.7348 29.4054C32.5512 29.3945 32.5512 29.3945 32.4692 29.3105C32.4613 29.1873 32.4592 29.0636 32.4593 28.9401C32.4592 28.8602 32.4591 28.7802 32.459 28.6978C32.4593 28.6094 32.4596 28.5209 32.4599 28.4298C32.4599 28.3372 32.4599 28.2447 32.4598 28.1493C32.4599 27.8416 32.4605 27.534 32.4612 27.2263C32.4613 27.0137 32.4614 26.801 32.4615 26.5884C32.4618 26.0848 32.4625 25.5812 32.4633 25.0777C32.4642 24.5045 32.4647 23.9314 32.4651 23.3582C32.4659 22.1789 32.4674 20.9996 32.4692 19.8203Z" fill="#8AC444"/>
<path d="M6.47066 19.8045C6.57297 19.8057 6.67527 19.8068 6.78068 19.808C7.03114 19.8109 7.28152 19.8151 7.53194 19.8203C7.53385 21.0562 7.5353 22.2921 7.53619 23.5281C7.53661 24.1019 7.53719 24.6757 7.53813 25.2495C7.53903 25.8028 7.53951 26.356 7.53972 26.9093C7.53987 27.1209 7.54017 27.3325 7.54061 27.5441C7.5412 27.8393 7.54129 28.1346 7.54125 28.4298C7.54155 28.5183 7.54184 28.6067 7.54215 28.6978C7.54203 28.7778 7.54192 28.8577 7.5418 28.9401C7.54188 29.01 7.54195 29.08 7.54203 29.152C7.53194 29.3105 7.53194 29.3105 7.44991 29.3945C7.13781 29.4184 6.82454 29.414 6.51168 29.4155C6.42502 29.4172 6.33836 29.419 6.24908 29.4208C5.36314 29.4252 4.6683 29.2589 4.0046 28.6386C3.42699 28.0339 3.17681 27.3217 3.17106 26.4852C3.17028 26.3921 3.16949 26.299 3.16868 26.2031C3.16833 26.1031 3.16798 26.0032 3.16762 25.9003C3.16715 25.7966 3.16668 25.693 3.1662 25.5862C3.16543 25.3668 3.16489 25.1475 3.16458 24.9281C3.16404 24.5944 3.16124 24.2606 3.15865 23.9268C3.15811 23.7133 3.15768 23.4998 3.15737 23.2863C3.15635 23.1872 3.15534 23.0882 3.1543 22.9861C3.15675 22.0439 3.31918 21.3125 3.95845 20.6076C4.0625 20.5089 4.0625 20.5089 4.16866 20.4082C4.22957 20.3493 4.29047 20.2904 4.35323 20.2297C5.00924 19.7718 5.70002 19.7882 6.47066 19.8045Z" fill="#8AC444"/>
<path d="M20.9788 4.67161C21.6488 5.03682 22.1126 5.54089 22.3468 6.29225C22.4916 7.08899 22.3781 7.8106 21.9392 8.48536C21.6064 8.9156 21.1922 9.22224 20.6558 9.32225C19.8149 9.3707 19.0829 9.39742 18.3846 8.84984C17.935 8.42848 17.6553 7.87087 17.6011 7.25085C17.5798 6.38095 17.7774 5.73788 18.3641 5.09711C19.0577 4.47723 20.1285 4.30924 20.9788 4.67161Z" fill="#8BC543"/>
<path d="M16.1654 20.1983C16.756 20.5323 17.2182 20.9787 17.4209 21.6526C17.5634 22.3681 17.4608 22.8985 17.1159 23.5376C16.7602 24.0808 16.2876 24.4779 15.6527 24.6075C14.9407 24.694 14.4193 24.5579 13.832 24.1449C13.4074 23.8 13.2096 23.4443 13.0277 22.9278C13.0007 22.8723 12.9736 22.8169 12.9457 22.7598C12.8621 21.9391 13.0378 21.3562 13.5404 20.7179C14.2343 19.9494 15.2433 19.7601 16.1654 20.1983Z" fill="#89C445"/>
<path d="M25.7631 20.1983C26.3536 20.5323 26.8158 20.9787 27.0186 21.6526C27.162 22.3729 27.0553 22.9008 26.7077 23.5436C26.3568 24.0865 25.8625 24.4298 25.2504 24.6075C24.5443 24.7098 24.0106 24.5534 23.4297 24.1449C23.005 23.8 22.8073 23.4443 22.6254 22.9278C22.5983 22.8723 22.5713 22.8169 22.5434 22.7598C22.4598 21.9391 22.6355 21.3562 23.1381 20.7179C23.832 19.9494 24.8409 19.7601 25.7631 20.1983Z" fill="#89C445"/>
<path d="M16.7852 28.3226C16.7852 28.3226 17.8563 29.2904 19.9986 29.2904C22.1408 29.2904 23.212 28.3226 23.212 28.3226" stroke="#8BC543" stroke-width="1.5" stroke-linecap="round"/>
</svg>
