<svg width="37" height="37" viewBox="0 0 37 37" fill="none" xmlns="http://www.w3.org/2000/svg">
<g clip-path="url(#clip0_425_1336)">
<mask id="mask0_425_1336" style="mask-type:luminance" maskUnits="userSpaceOnUse" x="0" y="0" width="37" height="37">
<path d="M37 0H0V37H37V0Z" fill="white"/>
</mask>
<g mask="url(#mask0_425_1336)">
<path d="M23.8965 20.2723H20.5511C17.8069 20.2723 15.5715 18.0523 15.5715 15.2927V11.9473C15.5715 11.3152 15.0627 10.791 14.4152 10.791H9.52815C5.9669 10.791 3.08398 13.1035 3.08398 17.2352V27.4718C3.08398 31.6035 5.9669 33.916 9.52815 33.916H18.6086C22.1698 33.916 25.0527 31.6035 25.0527 27.4718V21.4285C25.0527 20.781 24.5286 20.2723 23.8965 20.2723Z" fill="#159647"/>
<path d="M27.474 3.08301H24.4369H22.7565H18.3936C14.9094 3.08301 12.0882 5.30301 11.9648 9.26509C12.0573 9.26509 12.1344 9.24967 12.2269 9.24967H16.5898H18.2702H21.3073C24.8686 9.24967 27.7515 11.5622 27.7515 15.6938V18.7309V22.9088V25.9459C27.7515 26.0384 27.7361 26.1155 27.7361 26.1926C31.174 26.0847 33.9182 23.803 33.9182 19.7793V16.7422V12.5643V9.52717C33.9182 5.39551 31.0352 3.08301 27.474 3.08301Z" fill="#159647"/>
<path d="M18.4688 11.0218C17.9909 10.5439 17.1738 10.8676 17.1738 11.5305V15.5698C17.1738 17.2656 18.6076 18.6531 20.3651 18.6531C21.4597 18.6685 22.9859 18.6685 24.2963 18.6685C24.9592 18.6685 25.2984 17.8977 24.8359 17.4352C23.1555 15.7548 20.1647 12.7485 18.4688 11.0218Z" fill="#159647"/>
</g>
</g>
<defs>
<clipPath id="clip0_425_1336">
<rect width="37" height="37" fill="white"/>
</clipPath>
</defs>
</svg>
