<svg width="25" height="25" viewBox="0 0 25 25" fill="none" xmlns="http://www.w3.org/2000/svg">
<path d="M22.1441 10.9837L20.6241 9.46365C20.3641 9.20365 20.1541 8.69365 20.1541 8.33365V6.17365C20.1541 5.29365 19.4341 4.57365 18.5541 4.57365H16.4041C16.0441 4.57365 15.5341 4.36365 15.2741 4.10365L13.7541 2.58365C13.1341 1.96365 12.1141 1.96365 11.4941 2.58365L9.95414 4.10365C9.70414 4.36365 9.19414 4.57365 8.82414 4.57365H6.67414C5.79414 4.57365 5.07414 5.29365 5.07414 6.17365V8.32365C5.07414 8.68365 4.86414 9.19365 4.60414 9.45365L3.08414 10.9737C2.46414 11.5937 2.46414 12.6137 3.08414 13.2337L4.60414 14.7537C4.86414 15.0137 5.07414 15.5237 5.07414 15.8837V18.0337C5.07414 18.9137 5.79414 19.6337 6.67414 19.6337H8.82414C9.18414 19.6337 9.69414 19.8437 9.95414 20.1037L11.4741 21.6237C12.0941 22.2437 13.1141 22.2437 13.7341 21.6237L15.2541 20.1037C15.5141 19.8437 16.0241 19.6337 16.3841 19.6337H18.5341C19.4141 19.6337 20.1341 18.9137 20.1341 18.0337V15.8837C20.1341 15.5237 20.3441 15.0137 20.6041 14.7537L22.1241 13.2337C22.7741 12.6237 22.7741 11.6037 22.1441 10.9837ZM8.61414 9.11365C8.61414 8.56365 9.06414 8.11365 9.61414 8.11365C10.1641 8.11365 10.6141 8.56365 10.6141 9.11365C10.6141 9.66365 10.1741 10.1137 9.61414 10.1137C9.06414 10.1137 8.61414 9.66365 8.61414 9.11365ZM10.1441 15.6437C9.99414 15.7937 9.80414 15.8637 9.61414 15.8637C9.42414 15.8637 9.23414 15.7937 9.08414 15.6437C8.79414 15.3537 8.79414 14.8737 9.08414 14.5837L15.0841 8.58365C15.3741 8.29365 15.8541 8.29365 16.1441 8.58365C16.4341 8.87365 16.4341 9.35365 16.1441 9.64365L10.1441 15.6437ZM15.6141 16.1137C15.0541 16.1137 14.6041 15.6637 14.6041 15.1137C14.6041 14.5637 15.0541 14.1137 15.6041 14.1137C16.1541 14.1137 16.6041 14.5637 16.6041 15.1137C16.6041 15.6637 16.1641 16.1137 15.6141 16.1137Z" fill="#159647"/>
</svg>
