<svg width="21" height="21" viewBox="0 0 21 21" fill="none" xmlns="http://www.w3.org/2000/svg">
<path d="M11.3352 13.2786H11.8769C12.4185 13.2786 12.8685 12.7952 12.8685 12.2119C12.8685 11.4869 12.6102 11.3452 12.1852 11.1952L11.3435 10.9036V13.2786H11.3352Z" fill="white"/>
<path d="M10.6852 1.59547C6.08522 1.61214 2.36022 5.35381 2.37689 9.95381C2.39355 14.5538 6.13522 18.2788 10.7352 18.2621C15.3352 18.2455 19.0602 14.5038 19.0436 9.90381C19.0269 5.30381 15.2852 1.58714 10.6852 1.59547ZM12.5936 10.0121C13.2436 10.2371 14.1186 10.7205 14.1186 12.2121C14.1186 13.4955 13.1102 14.5288 11.8769 14.5288H11.3352V15.0121C11.3352 15.3538 11.0519 15.6371 10.7102 15.6371C10.3686 15.6371 10.0852 15.3538 10.0852 15.0121V14.5288H9.78522C8.41855 14.5288 7.31022 13.3788 7.31022 11.9621C7.31022 11.6205 7.59355 11.3371 7.93522 11.3371C8.27689 11.3371 8.56022 11.6205 8.56022 11.9621C8.56022 12.6871 9.11022 13.2788 9.78522 13.2788H10.0852V10.4621L8.82689 10.0121C8.17689 9.78714 7.30189 9.30381 7.30189 7.81214C7.30189 6.52881 8.31022 5.49547 9.54355 5.49547H10.0852V5.01214C10.0852 4.67047 10.3686 4.38714 10.7102 4.38714C11.0519 4.38714 11.3352 4.67047 11.3352 5.01214V5.49547H11.6352C13.0019 5.49547 14.1102 6.64547 14.1102 8.06214C14.1102 8.40381 13.8269 8.68714 13.4852 8.68714C13.1436 8.68714 12.8602 8.40381 12.8602 8.06214C12.8602 7.33714 12.3102 6.74547 11.6352 6.74547H11.3352V9.56214L12.5936 10.0121Z" fill="white"/>
<path d="M8.56018 7.82012C8.56018 8.54512 8.81851 8.68678 9.24351 8.83678L10.0852 9.12845V6.74512H9.54351C9.00185 6.74512 8.56018 7.22845 8.56018 7.82012Z" fill="white"/>
</svg>
