<svg width="17" height="17" viewBox="0 0 17 17" fill="none" xmlns="http://www.w3.org/2000/svg">
<path d="M11.9787 0H4.90461C1.83184 0 0 1.83184 0 4.90461V11.9703C0 15.0515 1.83184 16.8833 4.90461 16.8833H11.9703C15.043 16.8833 16.8749 15.0515 16.8749 11.9787V4.90461C16.8833 1.83184 15.0515 0 11.9787 0ZM7.55529 13.093C7.31048 13.3378 6.84619 13.5742 6.50852 13.6248L4.43187 13.9203C4.3559 13.9287 4.27992 13.9372 4.20395 13.9372C3.85784 13.9372 3.53706 13.819 3.30913 13.5911C3.03056 13.3125 2.91237 12.9073 2.97991 12.4599L3.27537 10.3833C3.32602 10.0371 3.55394 9.58129 3.80719 9.33648L7.57218 5.5715C7.63971 5.74878 7.70724 5.92605 7.8001 6.12865C7.88452 6.30592 7.97737 6.49164 8.07867 6.66048C8.16309 6.80398 8.25595 6.93905 8.33192 7.04035C8.42478 7.18386 8.53452 7.31892 8.60206 7.3949C8.64427 7.45399 8.67803 7.4962 8.69492 7.51308C8.90596 7.76633 9.15077 8.0027 9.36181 8.17997C9.4209 8.23907 9.45467 8.27283 9.47155 8.28127C9.59818 8.38258 9.7248 8.48388 9.83454 8.55985C9.96961 8.66115 10.1047 8.75401 10.2482 8.82998C10.417 8.93128 10.6027 9.02414 10.7884 9.117C10.9826 9.20142 11.1599 9.27739 11.3372 9.33648L7.55529 13.093ZM12.9748 7.67347L12.1982 8.45855C12.1476 8.5092 12.08 8.53452 12.0125 8.53452C11.9872 8.53452 11.9534 8.53452 11.9365 8.52608C10.2229 8.03647 8.85531 6.66892 8.36569 4.95526C8.34037 4.8624 8.36569 4.7611 8.43322 4.70201L9.2183 3.91693C10.5014 2.6338 11.7255 2.65912 12.9833 3.91693C13.6248 4.5585 13.9372 5.17474 13.9372 5.81631C13.9288 6.42411 13.6164 7.03191 12.9748 7.67347Z" fill="#1E99D3"/>
</svg>
