<svg width="51" height="51" viewBox="0 0 51 51" fill="none" xmlns="http://www.w3.org/2000/svg">
<path d="M37.5617 12.0299L25.7909 5.69653C24.5409 5.02987 23.0617 5.02987 21.8117 5.69653L10.0617 12.0299C9.20753 12.509 8.66586 13.4257 8.66586 14.4257C8.66586 15.4465 9.1867 16.3632 10.0617 16.8215L21.8325 23.1549C22.4575 23.4882 23.145 23.6549 23.8117 23.6549C24.4784 23.6549 25.1867 23.4882 25.7909 23.1549L37.5617 16.8215C38.4159 16.3632 38.9575 15.4465 38.9575 14.4257C38.9575 13.4257 38.4159 12.509 37.5617 12.0299Z" fill="#1E99D3"/>
<path d="M19.895 25.3638L8.95751 19.9055C8.10334 19.468 7.14501 19.5305 6.33251 20.0096C5.54084 20.5096 5.06168 21.3638 5.06168 22.3013V32.6346C5.06168 34.4263 6.06168 36.0305 7.66584 36.843L18.6033 42.3013C18.9783 42.4888 19.395 42.593 19.8117 42.593C20.2908 42.593 20.7908 42.4471 21.2283 42.1971C22.02 41.6971 22.4992 40.843 22.4992 39.9055V29.5721C22.4783 27.7805 21.4783 26.1763 19.895 25.3638Z" fill="#1E99D3"/>
<path d="M42.5617 22.3013V27.4263C41.5617 27.1346 40.4992 27.0096 39.4367 27.0096C36.6034 27.0096 33.8325 27.9888 31.645 29.7388C28.645 32.093 26.9367 35.6555 26.9367 39.5096C26.9367 40.5305 27.0617 41.5513 27.3325 42.5305C27.02 42.4888 26.7075 42.3638 26.4159 42.1763C25.6242 41.6971 25.1451 40.843 25.1451 39.9055V29.5721C25.1451 27.7805 26.145 26.1763 27.7284 25.3638L38.6659 19.9055C39.52 19.468 40.4784 19.5305 41.2909 20.0096C42.0825 20.5096 42.5617 21.3638 42.5617 22.3013Z" fill="#1E99D3"/>
<path d="M46.7283 33.6748C46.7283 33.654 46.7075 33.6332 46.6867 33.6123C46.6033 33.4873 46.4992 33.3623 46.395 33.2582C46.3742 33.2373 46.3533 33.1957 46.3325 33.1748C44.645 31.2998 42.1658 30.1332 39.4367 30.1332C36.8117 30.1332 34.4158 31.2165 32.7075 32.9665C31.0617 34.654 30.0617 36.9665 30.0617 39.5082C30.0617 41.2582 30.5617 42.9248 31.4158 44.3415C31.8742 45.1123 32.4575 45.8207 33.1242 46.404C33.1658 46.4248 33.1867 46.4457 33.2075 46.4665C33.3117 46.5707 33.4158 46.654 33.5408 46.7582C33.5408 46.7582 33.5408 46.7582 33.5617 46.7582C33.5825 46.779 33.6033 46.7998 33.6242 46.7998C35.1867 48.1123 37.2075 48.8832 39.4367 48.8832C42.8533 48.8832 45.8325 47.0498 47.4575 44.3415C47.9367 43.529 48.3117 42.6332 48.5408 41.6957C48.7283 40.9873 48.8117 40.2582 48.8117 39.5082C48.8117 37.2998 48.0408 35.2582 46.7283 33.6748ZM42.9367 41.029H40.9992V43.0498C40.9992 43.904 40.2908 44.6123 39.4367 44.6123C38.5825 44.6123 37.8742 43.904 37.8742 43.0498V41.029H35.9367C35.0825 41.029 34.3742 40.3207 34.3742 39.4665C34.3742 38.6123 35.0825 37.904 35.9367 37.904H37.8742V36.0498C37.8742 35.1957 38.5825 34.4873 39.4367 34.4873C40.2908 34.4873 40.9992 35.1957 40.9992 36.0498V37.904H42.9367C43.7908 37.904 44.4992 38.6123 44.4992 39.4665C44.4992 40.3207 43.8117 41.029 42.9367 41.029Z" fill="#1E99D3"/>
</svg>
