<svg width="51" height="51" viewBox="0 0 51 51" fill="none" xmlns="http://www.w3.org/2000/svg">
<path fill-rule="evenodd" clip-rule="evenodd" d="M32.03 15.1104C34.7645 15.4034 36.7373 16.2433 38.046 17.6887C39.9211 19.7982 39.882 22.6109 39.6671 24.5446L39.4627 26.1775C38.7258 26.0422 37.9663 25.9714 37.1904 25.9714C30.2884 25.9714 24.6932 31.5666 24.6932 38.4686C24.6932 40.1274 25.0163 41.7107 25.6032 43.1589H17.0487C8.64973 43.1589 7.10667 39.2525 6.69649 35.4436L5.32922 24.5641C5.11437 22.6109 5.05577 19.7982 6.95041 17.6887C8.25908 16.2433 10.2318 15.4034 12.9664 15.1104V13.9776C12.9664 9.09446 16.8924 4.58248 21.5606 4.13324C24.2756 3.87932 26.893 4.73874 28.9048 6.57479C30.8971 8.37177 32.03 10.95 32.03 13.626V15.1104ZM27.0883 8.58662C25.6429 7.27795 23.7873 6.67245 21.8341 6.84824C18.5526 7.16076 15.6814 10.5008 15.6814 13.9776V14.9932H29.315V13.626C29.315 11.7118 28.5142 9.87576 27.0883 8.58662ZM15.4861 25.8728H15.5056C16.5799 25.8728 17.4588 24.9938 17.4588 23.9195C17.4588 22.8453 16.5799 21.9663 15.4861 21.9663C14.4118 21.9663 13.5328 22.8453 13.5328 23.9195C13.5328 24.9938 14.4118 25.8728 15.4861 25.8728ZM29.1587 25.8728H29.1783C30.2525 25.8728 31.1315 24.9938 31.1315 23.9195C31.1315 22.8453 30.2525 21.9663 29.1587 21.9663C28.0844 21.9663 27.2055 22.8453 27.2055 23.9195C27.2055 24.9938 28.0844 25.8728 29.1587 25.8728Z" fill="#1E99D3"/>
<path d="M44.482 32.6352C44.482 32.6143 44.4612 32.5935 44.4404 32.5727C44.357 32.4477 44.2529 32.3227 44.1487 32.2185C44.1279 32.1977 44.107 32.156 44.0862 32.1352C42.3987 30.2602 39.9195 29.0935 37.1904 29.0935C34.5654 29.0935 32.1695 30.1768 30.4612 31.9268C28.8154 33.6143 27.8154 35.9268 27.8154 38.4685C27.8154 40.2185 28.3154 41.8852 29.1695 43.3018C29.6279 44.0727 30.2112 44.781 30.8779 45.3643C30.9195 45.3852 30.9404 45.406 30.9612 45.4268C31.0654 45.531 31.1695 45.6143 31.2945 45.7185C31.2945 45.7185 31.2945 45.7185 31.3154 45.7185C31.3362 45.7393 31.357 45.7602 31.3779 45.7602C32.9404 47.0727 34.9612 47.8435 37.1904 47.8435C40.607 47.8435 43.5862 46.0102 45.2112 43.3018C45.6904 42.4893 46.0654 41.5935 46.2945 40.656C46.482 39.9477 46.5654 39.2185 46.5654 38.4685C46.5654 36.2602 45.7945 34.2185 44.482 32.6352ZM40.6904 39.9893H38.7529V42.0102C38.7529 42.8643 38.0445 43.5727 37.1904 43.5727C36.3362 43.5727 35.6279 42.8643 35.6279 42.0102V39.9893H33.6904C32.8362 39.9893 32.1279 39.281 32.1279 38.4268C32.1279 37.5727 32.8362 36.8643 33.6904 36.8643H35.6279V35.0102C35.6279 34.156 36.3362 33.4477 37.1904 33.4477C38.0445 33.4477 38.7529 34.156 38.7529 35.0102V36.8643H40.6904C41.5445 36.8643 42.2529 37.5727 42.2529 38.4268C42.2529 39.281 41.5654 39.9893 40.6904 39.9893Z" fill="#1E99D3"/>
</svg>
