<svg width="25" height="25" viewBox="0 0 25 25" fill="none" xmlns="http://www.w3.org/2000/svg">
<path d="M18.3641 8.38312C18.3641 8.32438 18.3569 8.26524 18.342 8.20698C17.8754 6.37447 16.6252 4.8775 14.969 4.05444V5.50698C14.969 5.90156 14.6494 6.22149 14.2545 6.22149C13.8595 6.22149 13.54 5.90156 13.54 5.50698V3.56405V3.36344C13.54 2.96881 13.2201 2.64893 12.8255 2.64893H11.3964C11.0018 2.64893 10.6819 2.96881 10.6819 3.36344V3.56396V5.50698C10.6819 5.90156 10.362 6.22149 9.96741 6.22149C9.57282 6.22149 9.2529 5.90156 9.2529 5.50698V4.05444C7.59631 4.87746 6.34613 6.37447 5.87954 8.20698C5.86472 8.26529 5.85944 8.32425 5.86219 8.38269C5.35421 8.46681 4.96582 8.90496 4.96582 9.43679C4.96582 10.0287 5.44567 10.5086 6.03759 10.5086H18.1843C18.7762 10.5086 19.2561 10.0287 19.2561 9.43679C19.2561 8.90645 18.8699 8.46899 18.3641 8.38312Z" fill="#868A96"/>
<path d="M17.1106 11.9395H7.10742V12.654C7.10742 14.018 7.65757 15.255 8.54604 16.1582C8.54377 16.1813 8.53645 16.2031 8.53645 16.2265V17.4294L12.0912 19.0092L15.6816 17.2139V16.2265C15.6816 16.203 15.6742 16.1812 15.672 16.1581C16.5604 15.2549 17.1106 14.0179 17.1106 12.654V11.9395Z" fill="#868A96"/>
<path d="M7.8252 22.6572H16.3993V18.4546L12.4318 20.4383C12.3314 20.4886 12.2218 20.5137 12.1123 20.5137C12.0135 20.5137 11.9145 20.4931 11.822 20.4519L7.8252 18.6756V22.6572Z" fill="#868A96"/>
<path d="M6.39646 18.4487C4.69496 18.9699 3.21783 20.0619 2.2294 21.5449C2.08322 21.764 2.06961 22.0459 2.19381 22.2782C2.31837 22.5106 2.56049 22.6557 2.8239 22.6557H6.39646V18.4487Z" fill="#868A96"/>
<path d="M21.9942 21.5453C21.0059 20.0624 19.5288 18.9705 17.8271 18.4492V22.6561H21.3997C21.6635 22.6561 21.9056 22.511 22.0298 22.2786C22.154 22.0463 22.14 21.7644 21.9942 21.5453Z" fill="#868A96"/>
</svg>
