<svg width="31" height="31" viewBox="0 0 31 31" fill="none" xmlns="http://www.w3.org/2000/svg">
<path d="M10.1307 26.0976C9.90307 26.0976 9.68172 26.0229 9.50053 25.8851C9.31935 25.7472 9.18831 25.5539 9.12747 25.3345C9.06663 25.1151 9.07935 24.8819 9.16367 24.6704C9.24799 24.459 9.39928 24.2809 9.59437 24.1636C13.2843 21.9474 13.2843 17.1879 13.2843 14.3448C13.2843 13.5161 13.6134 12.7214 14.1994 12.1355C14.7853 11.5496 15.58 11.2204 16.4086 11.2204C17.2373 11.2204 18.032 11.5496 18.6179 12.1355C19.2038 12.7214 19.533 13.5161 19.533 14.3448C19.533 14.621 19.4233 14.8859 19.228 15.0812C19.0327 15.2765 18.7678 15.3862 18.4915 15.3862C18.2153 15.3862 17.9504 15.2765 17.7551 15.0812C17.5598 14.8859 17.4501 14.621 17.4501 14.3448C17.4501 14.0686 17.3404 13.8037 17.1451 13.6083C16.9497 13.413 16.6848 13.3033 16.4086 13.3033C16.1324 13.3033 15.8675 13.413 15.6722 13.6083C15.4769 13.8037 15.3672 14.0686 15.3672 14.3448C15.3672 17.4139 15.3672 23.1284 10.666 25.9497C10.5043 26.0466 10.3193 26.0977 10.1307 26.0976ZM15.2995 27.5775C17.6761 25.1822 19.0644 21.8141 19.4247 17.5577C19.4368 17.4211 19.4219 17.2835 19.3808 17.1528C19.3396 17.022 19.2731 16.9007 19.1849 16.7957C19.0968 16.6907 18.9888 16.6042 18.8671 16.541C18.7454 16.4779 18.6125 16.4393 18.4759 16.4277C18.3393 16.4137 18.2012 16.4273 18.0699 16.4678C17.9386 16.5082 17.8168 16.5747 17.7118 16.6633C17.6067 16.7518 17.5206 16.8606 17.4584 16.9831C17.3963 17.1056 17.3595 17.2394 17.3501 17.3765C17.0262 21.1851 15.8723 24.0418 13.8216 26.1049C13.6269 26.3009 13.518 26.5662 13.5189 26.8425C13.5198 27.1187 13.6304 27.3833 13.8263 27.5781C14.0223 27.7728 14.2876 27.8817 14.5639 27.8808C14.8401 27.8799 15.1047 27.7693 15.2995 27.5734V27.5775ZM20.7151 27.3838C21.3468 26.3342 21.8729 25.2244 22.2856 24.0709C22.3719 23.813 22.3538 23.5315 22.2352 23.2866C22.1166 23.0418 21.9069 22.8531 21.651 22.7609C21.3951 22.6686 21.1133 22.6802 20.8658 22.793C20.6183 22.9059 20.4248 23.1111 20.3266 23.3648C19.9599 24.3876 19.4932 25.3717 18.9331 26.3028C18.8621 26.4198 18.8149 26.5496 18.7941 26.6849C18.7733 26.8202 18.7793 26.9582 18.8119 27.0911C18.8444 27.224 18.9028 27.3493 18.9838 27.4596C19.0647 27.57 19.1666 27.6633 19.2836 27.7343C19.5199 27.8776 19.8034 27.9212 20.0719 27.8555C20.2048 27.823 20.33 27.7646 20.4404 27.6836C20.5507 27.6027 20.6441 27.5008 20.7151 27.3838ZM23.1781 20.7924C23.5639 18.6657 23.7384 16.5059 23.6988 14.3448C23.6979 12.8693 23.2492 11.4289 22.4122 10.2139C21.5752 8.99885 20.3892 8.06638 19.0109 7.53971C17.6327 7.01304 16.1271 6.91696 14.6931 7.26416C13.2591 7.61136 11.9642 8.3855 10.9795 9.48428C10.8836 9.58531 10.809 9.70454 10.76 9.83493C10.711 9.96532 10.6886 10.1042 10.6942 10.2434C10.6999 10.3826 10.7334 10.5192 10.7927 10.6452C10.8521 10.7712 10.9362 10.884 11.0399 10.977C11.1437 11.0699 11.265 11.1411 11.3967 11.1863C11.5285 11.2316 11.668 11.2499 11.8069 11.2403C11.9459 11.2306 12.0815 11.1932 12.2057 11.1302C12.33 11.0672 12.4403 10.98 12.5302 10.8736C13.2335 10.0886 14.1584 9.53553 15.1827 9.28741C16.207 9.0393 17.2825 9.10784 18.2671 9.48397C19.2516 9.86011 20.0988 10.5261 20.6967 11.394C21.2947 12.2619 21.6152 13.2908 21.6159 14.3448C21.6543 16.3723 21.4932 18.3986 21.1348 20.3946C21.0822 20.6655 21.1393 20.9463 21.2936 21.1752C21.4478 21.404 21.6866 21.5623 21.9575 21.6152C22.0237 21.6284 22.091 21.635 22.1585 21.635C22.3998 21.6344 22.6333 21.55 22.8192 21.3963C23.0052 21.2427 23.132 21.0292 23.1781 20.7924ZM11.2013 14.3448C11.201 14.0541 11.2251 13.7639 11.2732 13.4772C11.3043 13.3392 11.307 13.1963 11.281 13.0573C11.2551 12.9182 11.2011 12.7859 11.1223 12.6684C11.0435 12.5509 10.9416 12.4506 10.8228 12.3738C10.7041 12.297 10.5709 12.2452 10.4314 12.2215C10.2919 12.1978 10.1491 12.2028 10.0116 12.2362C9.87414 12.2696 9.7449 12.3306 9.63178 12.4155C9.51867 12.5005 9.42405 12.6076 9.35369 12.7303C9.28334 12.8531 9.23872 12.9888 9.22257 13.1294C9.15382 13.5309 9.11898 13.9374 9.11842 14.3448C9.11842 19.1823 7.71662 21.635 4.95259 21.635C4.67638 21.635 4.41148 21.7447 4.21617 21.94C4.02086 22.1353 3.91113 22.4002 3.91113 22.6764C3.91113 22.9526 4.02086 23.2175 4.21617 23.4129C4.41148 23.6082 4.67638 23.7179 4.95259 23.7179C8.98199 23.7179 11.2013 20.3852 11.2013 14.3448ZM25.4693 27.2734C27.1832 23.1848 28.0001 18.776 27.8647 14.3448C27.8695 12.6148 27.4776 10.9068 26.7191 9.35202C26.6592 9.22893 26.5757 9.11883 26.4734 9.028C26.371 8.93718 26.2517 8.86742 26.1224 8.82269C25.993 8.77796 25.8561 8.75915 25.7195 8.76732C25.5829 8.7755 25.4492 8.81051 25.3261 8.87034C25.203 8.93018 25.0929 9.01367 25.0021 9.11606C24.9113 9.21844 24.8415 9.33771 24.7968 9.46706C24.7521 9.59641 24.7333 9.7333 24.7414 9.86991C24.7496 10.0065 24.7846 10.1402 24.8444 10.2633C25.4641 11.5345 25.7848 12.9306 25.7818 14.3448C25.9129 18.4781 25.1605 22.5918 23.5749 26.4111C23.5185 26.5358 23.4871 26.6704 23.4828 26.8073C23.4784 26.9441 23.501 27.0804 23.5494 27.2085C23.5978 27.3366 23.6709 27.4539 23.7646 27.5536C23.8584 27.6534 23.9708 27.7337 24.0956 27.79C24.2305 27.852 24.3773 27.884 24.5258 27.8837C24.7249 27.8829 24.9197 27.8249 25.0869 27.7168C25.2542 27.6086 25.3869 27.4547 25.4693 27.2734ZM7.03551 17.4691V14.3448C7.03826 11.8597 8.02667 9.47722 9.78388 7.72001C11.5411 5.96281 13.9236 4.9744 16.4086 4.97164C18.4378 4.96488 20.4132 5.62337 22.0325 6.84627C22.2535 7.01199 22.5312 7.08315 22.8047 7.04409C23.0781 7.00503 23.3248 6.85894 23.4905 6.63797C23.6563 6.41701 23.7274 6.13925 23.6884 5.86582C23.6493 5.59238 23.5032 5.34566 23.2823 5.17993C21.3028 3.68588 18.8886 2.88114 16.4086 2.88873C13.3714 2.89231 10.4596 4.10043 8.31195 6.24808C6.1643 8.39573 4.95617 11.3075 4.95259 14.3448V17.4691C4.95259 17.7454 5.06232 18.0103 5.25763 18.2056C5.45294 18.4009 5.71784 18.5106 5.99405 18.5106C6.27026 18.5106 6.53516 18.4009 6.73047 18.2056C6.92578 18.0103 7.03551 17.7454 7.03551 17.4691Z" fill="white"/>
</svg>
