<svg width="25" height="25" viewBox="0 0 25 25" fill="none" xmlns="http://www.w3.org/2000/svg">
<path d="M4.41655 7.39965L10.1766 3.36965C11.7466 2.26965 14.1566 2.32965 15.6666 3.49965L20.6766 7.40965C21.6766 8.18965 22.4666 9.78965 22.4666 11.0497V17.9497C22.4666 20.4997 20.3966 22.5796 17.8466 22.5796H7.06655C4.51655 22.5796 2.44655 20.5096 2.44655 17.9596V11.1797C2.44655 9.82965 3.31655 8.16965 4.41655 7.39965ZM11.7066 18.5796C11.7066 18.9897 12.0466 19.3296 12.4566 19.3296C12.8666 19.3296 13.2066 18.9897 13.2066 18.5796V15.5796C13.2066 15.1697 12.8666 14.8296 12.4566 14.8296C12.0466 14.8296 11.7066 15.1697 11.7066 15.5796V18.5796Z" fill="#868A96"/>
</svg>
