<svg width="21" height="21" viewBox="0 0 21 21" fill="none" xmlns="http://www.w3.org/2000/svg">
<path d="M6.72831 2.27319H5.89498C3.39498 2.27319 2.56165 3.76486 2.56165 5.60653V6.43986V18.1065C2.56165 18.7982 3.34498 19.1899 3.89498 18.7732L5.31998 17.7065C5.65331 17.4565 6.11998 17.4899 6.41998 17.7899L7.80331 19.1815C8.12831 19.5065 8.66165 19.5065 8.98665 19.1815L10.3866 17.7815C10.6783 17.4899 11.145 17.4565 11.47 17.7065L12.895 18.7732C13.445 19.1815 14.2283 18.7899 14.2283 18.1065V3.93986C14.2283 3.02319 14.9783 2.27319 15.895 2.27319H6.72831ZM5.86998 12.2815C5.41165 12.2815 5.03665 11.9065 5.03665 11.4482C5.03665 10.9899 5.41165 10.6149 5.86998 10.6149C6.32831 10.6149 6.70331 10.9899 6.70331 11.4482C6.70331 11.9065 6.32831 12.2815 5.86998 12.2815ZM5.86998 8.94819C5.41165 8.94819 5.03665 8.57319 5.03665 8.11486C5.03665 7.65653 5.41165 7.28153 5.86998 7.28153C6.32831 7.28153 6.70331 7.65653 6.70331 8.11486C6.70331 8.57319 6.32831 8.94819 5.86998 8.94819ZM10.895 12.0732H8.39498C8.05331 12.0732 7.76998 11.7899 7.76998 11.4482C7.76998 11.1065 8.05331 10.8232 8.39498 10.8232H10.895C11.2366 10.8232 11.52 11.1065 11.52 11.4482C11.52 11.7899 11.2366 12.0732 10.895 12.0732ZM10.895 8.73986H8.39498C8.05331 8.73986 7.76998 8.45653 7.76998 8.11486C7.76998 7.77319 8.05331 7.48986 8.39498 7.48986H10.895C11.2366 7.48986 11.52 7.77319 11.52 8.11486C11.52 8.45653 11.2366 8.73986 10.895 8.73986Z" fill="white"/>
<path d="M15.9034 2.27319V3.52319C16.4534 3.52319 16.9784 3.74819 17.3617 4.12319C17.7617 4.53153 17.9784 5.05653 17.9784 5.60653V7.62319C17.9784 8.23986 17.7034 8.52319 17.0784 8.52319H15.4784V3.94819C15.4784 3.71486 15.6701 3.52319 15.9034 3.52319V2.27319ZM15.9034 2.27319C14.9784 2.27319 14.2284 3.02319 14.2284 3.94819V9.77319H17.0784C18.3951 9.77319 19.2284 8.93986 19.2284 7.62319V5.60653C19.2284 4.68986 18.8534 3.85653 18.2534 3.24819C17.6451 2.64819 16.8201 2.28153 15.9034 2.27319C15.9117 2.27319 15.9034 2.27319 15.9034 2.27319Z" fill="white"/>
</svg>
