<svg width="36" height="36" viewBox="0 0 36 36" fill="none" xmlns="http://www.w3.org/2000/svg">
<path d="M27.7388 12.2778V15.3403C27.0971 15.2528 26.3679 15.2091 25.5513 15.1945V12.2778C25.5513 7.68408 24.2534 4.62158 17.895 4.62158C11.5367 4.62158 10.2388 7.68408 10.2388 12.2778V15.1945C9.4221 15.2091 8.69294 15.2528 8.05127 15.3403V12.2778C8.05127 8.04867 9.0721 2.43408 17.895 2.43408C26.7179 2.43408 27.7388 8.04867 27.7388 12.2778Z" fill="#1E99D3"/>
<path d="M27.7386 15.3407C27.0969 15.2532 26.3678 15.2094 25.5511 15.1948H10.2386C9.42194 15.2094 8.69277 15.2532 8.05111 15.3407C4.33236 15.7927 3.31152 17.6157 3.31152 22.4865V25.4032C3.31152 31.2365 4.76986 32.6948 10.6032 32.6948H25.1865C31.0199 32.6948 32.4782 31.2365 32.4782 25.4032V22.4865C32.4782 17.6157 31.4574 15.7927 27.7386 15.3407ZM13.0969 24.9802C12.8199 25.2427 12.4407 25.4032 12.0615 25.4032C11.8719 25.4032 11.6824 25.3594 11.5074 25.2865C11.3178 25.2136 11.1719 25.1115 11.0261 24.9802C10.7636 24.7032 10.6032 24.324 10.6032 23.9448C10.6032 23.7552 10.6469 23.5657 10.7199 23.3907C10.7928 23.2157 10.8949 23.0552 11.0261 22.9094C11.1719 22.7782 11.3178 22.6761 11.5074 22.6032C12.0469 22.3698 12.6886 22.5011 13.0969 22.9094C13.2282 23.0552 13.3303 23.2157 13.4032 23.3907C13.4761 23.5657 13.5199 23.7552 13.5199 23.9448C13.5199 24.324 13.3594 24.7032 13.0969 24.9802ZM19.2365 24.499C19.1636 24.674 19.0615 24.8344 18.9303 24.9802C18.6532 25.2427 18.274 25.4032 17.8949 25.4032C17.5011 25.4032 17.1365 25.2427 16.8594 24.9802C16.7282 24.8344 16.6261 24.674 16.5532 24.499C16.4803 24.324 16.4365 24.1344 16.4365 23.9448C16.4365 23.5511 16.5969 23.1865 16.8594 22.9094C17.399 22.3698 18.3761 22.3698 18.9303 22.9094C19.1928 23.1865 19.3532 23.5511 19.3532 23.9448C19.3532 24.1344 19.3094 24.324 19.2365 24.499ZM24.7636 24.9802C24.4865 25.2427 24.1074 25.4032 23.7282 25.4032C23.349 25.4032 22.9699 25.2427 22.6928 24.9802C22.4303 24.7032 22.2699 24.3386 22.2699 23.9448C22.2699 23.5511 22.4303 23.1865 22.6928 22.9094C23.2469 22.3698 24.224 22.3698 24.7636 22.9094C24.8219 22.9823 24.8803 23.0552 24.9386 23.1427C24.9969 23.2157 25.0407 23.3032 25.0699 23.3907C25.1136 23.4782 25.1428 23.5657 25.1574 23.6532C25.1719 23.7552 25.1865 23.8573 25.1865 23.9448C25.1865 24.324 25.0261 24.7032 24.7636 24.9802Z" fill="#1E99D3"/>
</svg>
