<svg width="17" height="19" viewBox="0 0 17 19" fill="none" xmlns="http://www.w3.org/2000/svg">
<path d="M6.99659 13.6485L6.85938 14.3501L6.86078 14.3519C7.3259 15.1218 8.11023 15.5068 8.89457 15.5071C9.67926 15.5075 10.4643 15.1228 10.9301 14.3526L10.792 13.645C10.1934 13.922 9.54067 14.0707 8.89176 14.0669C8.2259 14.0651 7.58409 13.9208 6.99659 13.6485Z" fill="#1E99D3"/>
<path d="M5.2539 8.59854V9.13559C5.25151 11.2069 6.82215 13.0054 8.89447 13.0109C10.9053 13.0109 12.535 11.2759 12.535 9.13559V8.59854C13.3024 8.55136 13.9103 7.91415 13.9103 7.13509C13.9103 6.35568 13.3035 5.69488 12.535 5.67129C12.0092 5.65516 11.5061 5.45578 11.1429 5.07504L10.2474 4.13623C9.33565 5.09645 8.01926 5.67407 6.66194 5.67129H5.2539C4.48655 5.71879 3.87891 6.35568 3.87891 7.13509C3.87894 7.91415 4.48655 8.55101 5.2539 8.59854Z" fill="#1E99D3"/>
<path d="M5.18857 4.61924C5.25315 4.61456 6.59383 4.61885 6.67153 4.61723C7.71419 4.61723 8.76501 4.16614 9.48241 3.4106L10.2455 2.60693L11.9058 4.34765C12.0541 4.50617 12.3336 4.61755 12.5995 4.6192C12.8759 4.62089 13.1384 4.69795 13.3827 4.79625V4.05048C13.3827 2.05079 11.5205 0.572121 9.57279 1.02564L7.56748 1.49251C6.4988 1.73558 5.38643 1.51357 4.46987 0.943371C3.90944 2.18544 3.77135 3.62396 4.06916 4.96219C4.40068 4.76675 4.78125 4.6488 5.18857 4.61924Z" fill="#1E99D3"/>
<path d="M16.9824 18.9437L16.4107 17.2649C16.0919 16.328 15.3335 15.6073 14.3819 15.3359L11.9813 14.6519C11.3725 15.8119 10.2051 16.5677 8.89387 16.5615C7.33174 16.5348 6.52104 15.7412 5.75924 14.6639L3.4068 15.3356C2.45652 15.607 1.69926 16.327 1.38004 17.2625L0.806641 18.9437H3.7457V17.1096H4.80039V18.9437H12.9886V17.1096H14.0433V18.9437H16.9824Z" fill="#1E99D3"/>
</svg>
