<svg width="45" height="53" viewBox="0 0 45 53" fill="none" xmlns="http://www.w3.org/2000/svg">
<circle cx="22.2461" cy="40.6016" r="10.5" fill="#1E99D3" stroke="white" stroke-width="2"/>
<rect x="22.1211" width="31.284" height="31.284" rx="6" transform="rotate(45 22.1211 0)" fill="url(#paint0_linear_1_7019)"/>
<path d="M29.3079 19.1629C28.4329 15.3129 25.0746 13.5796 22.1246 13.5796C22.1246 13.5796 22.1246 13.5796 22.1163 13.5796C19.1746 13.5796 15.8079 15.3046 14.9329 19.1546C13.9579 23.4546 16.5913 27.0963 18.9746 29.3879C19.8579 30.2379 20.9913 30.6629 22.1246 30.6629C23.2579 30.6629 24.3913 30.2379 25.2663 29.3879C27.6496 27.0963 30.2829 23.4629 29.3079 19.1629ZM22.1246 23.3379C20.6746 23.3379 19.4996 22.1629 19.4996 20.7129C19.4996 19.2629 20.6746 18.0879 22.1246 18.0879C23.5746 18.0879 24.7496 19.2629 24.7496 20.7129C24.7496 22.1629 23.5746 23.3379 22.1246 23.3379Z" fill="white"/>
<defs>
<linearGradient id="paint0_linear_1_7019" x1="37.7631" y1="0" x2="37.7631" y2="31.284" gradientUnits="userSpaceOnUse">
<stop stop-color="#159644"/>
<stop offset="1" stop-color="#88C243"/>
</linearGradient>
</defs>
</svg>
