<svg width="25" height="25" viewBox="0 0 25 25" fill="none" xmlns="http://www.w3.org/2000/svg">
<path d="M11.1648 5.28903L6.73477 3.09903C4.34477 1.92903 2.38477 3.11903 2.38477 5.73903V20.579C2.38477 21.719 3.33477 22.649 4.49477 22.649H11.9148C12.4648 22.649 12.9148 22.199 12.9148 21.649V8.05903C12.9148 7.00903 12.1248 5.75903 11.1648 5.28903ZM9.38476 14.399H5.91476C5.50477 14.399 5.16477 14.059 5.16477 13.649C5.16477 13.239 5.50477 12.899 5.91476 12.899H9.38476C9.79476 12.899 10.1348 13.239 10.1348 13.649C10.1348 14.059 9.80476 14.399 9.38476 14.399ZM9.38476 10.399H5.91476C5.50477 10.399 5.16477 10.059 5.16477 9.64903C5.16477 9.23903 5.50477 8.89903 5.91476 8.89903H9.38476C9.79476 8.89903 10.1348 9.23903 10.1348 9.64903C10.1348 10.059 9.80476 10.399 9.38476 10.399Z" fill="#868A96"/>
<path d="M22.417 18.6909V20.1509C22.417 21.5309 21.297 22.6509 19.917 22.6509H15.387C14.847 22.6509 14.417 22.2209 14.417 21.6809V19.5209C15.487 19.6509 16.617 19.3409 17.427 18.6909C18.107 19.2409 18.977 19.5709 19.927 19.5709C20.857 19.5709 21.727 19.2409 22.417 18.6909Z" fill="#868A96"/>
<path d="M22.417 15.7009V15.7109C22.337 17.0209 21.267 18.0709 19.927 18.0709C18.537 18.0709 17.427 16.9409 17.427 15.5709C17.427 17.1009 16.017 18.3309 14.417 18.0209V12.6509C14.417 12.0109 15.007 11.5309 15.637 11.6709L17.427 12.0709L17.907 12.1809L19.947 12.6409C20.437 12.7409 20.887 12.9109 21.277 13.1609C21.277 13.1709 21.287 13.1709 21.287 13.1709C21.387 13.2409 21.487 13.3209 21.577 13.4109C22.037 13.8709 22.337 14.5409 22.407 15.5209C22.407 15.5809 22.417 15.6409 22.417 15.7009Z" fill="#868A96"/>
</svg>
