<svg width="36" height="36" viewBox="0 0 36 36" fill="none" xmlns="http://www.w3.org/2000/svg">
<path d="M25.1865 3.52783H10.6032C6.57819 3.52783 3.31152 6.77992 3.31152 10.7903V19.5112V20.9695C3.31152 24.9799 6.57819 28.232 10.6032 28.232H12.7907C13.1844 28.232 13.7094 28.4945 13.9574 28.8153L16.1449 31.7174C17.1074 33.0007 18.6824 33.0007 19.6449 31.7174L21.8324 28.8153C22.1094 28.4507 22.5469 28.232 22.999 28.232H25.1865C29.2115 28.232 32.4782 24.9799 32.4782 20.9695V10.7903C32.4782 6.77992 29.2115 3.52783 25.1865 3.52783ZM12.0615 18.1112C11.2449 18.1112 10.6032 17.4549 10.6032 16.6528C10.6032 15.8507 11.2594 15.1945 12.0615 15.1945C12.8636 15.1945 13.5199 15.8507 13.5199 16.6528C13.5199 17.4549 12.8782 18.1112 12.0615 18.1112ZM17.8949 18.1112C17.0782 18.1112 16.4365 17.4549 16.4365 16.6528C16.4365 15.8507 17.0928 15.1945 17.8949 15.1945C18.6969 15.1945 19.3532 15.8507 19.3532 16.6528C19.3532 17.4549 18.7115 18.1112 17.8949 18.1112ZM23.7282 18.1112C22.9115 18.1112 22.2699 17.4549 22.2699 16.6528C22.2699 15.8507 22.9261 15.1945 23.7282 15.1945C24.5303 15.1945 25.1865 15.8507 25.1865 16.6528C25.1865 17.4549 24.5449 18.1112 23.7282 18.1112Z" fill="#1E99D3"/>
</svg>
