<svg width="25" height="25" viewBox="0 0 25 25" fill="none" xmlns="http://www.w3.org/2000/svg">
<path d="M20.3452 9.67288C19.6752 8.93288 18.6652 8.50288 17.2652 8.35288V7.59288C17.2652 6.22288 16.6852 4.90288 15.6652 3.98288C14.6352 3.04288 13.2952 2.60288 11.9052 2.73288C9.51524 2.96288 7.50524 5.27288 7.50524 7.77288V8.35288C6.10524 8.50288 5.09524 8.93288 4.42524 9.67288C3.45524 10.7529 3.48524 12.1929 3.59524 13.1929L4.29524 18.7629C4.50524 20.7129 5.29524 22.7129 9.59524 22.7129H15.1752C19.4752 22.7129 20.2652 20.7129 20.4752 18.7729L21.1752 13.1829C21.2852 12.1929 21.3152 10.7529 20.3452 9.67288ZM12.0452 4.12288C13.0452 4.03288 13.9952 4.34288 14.7352 5.01288C15.4652 5.67288 15.8752 6.61288 15.8752 7.59288V8.29288H8.89524V7.77288C8.89524 5.99288 10.3652 4.28288 12.0452 4.12288ZM12.3852 19.2929C10.2952 19.2929 8.59524 17.5929 8.59524 15.5029C8.59524 13.4129 10.2952 11.7129 12.3852 11.7129C14.4752 11.7129 16.1752 13.4129 16.1752 15.5029C16.1752 17.5929 14.4752 19.2929 12.3852 19.2929Z" fill="white"/>
<path d="M11.8153 17.3529C11.6253 17.3529 11.4353 17.2829 11.2853 17.1329L10.2953 16.1429C10.0053 15.8529 10.0053 15.3729 10.2953 15.0829C10.5853 14.7929 11.0653 14.7929 11.3553 15.0829L11.8353 15.5629L13.4353 14.0829C13.7353 13.8029 14.2153 13.8229 14.4953 14.1229C14.7753 14.4229 14.7553 14.9029 14.4553 15.1829L12.3253 17.1529C12.1753 17.2829 11.9953 17.3529 11.8153 17.3529Z" fill="white"/>
</svg>
