<svg width="25" height="25" viewBox="0 0 25 25" fill="none" xmlns="http://www.w3.org/2000/svg">
<path fill-rule="evenodd" clip-rule="evenodd" d="M21.2688 11.2348L21.2542 11.2241C20.9488 10.999 20.5723 10.7214 20.5261 10.5391C20.5458 10.1805 20.6482 9.83138 20.8253 9.51895C21.0966 8.89625 21.3767 8.25096 21.0653 7.71435C20.754 7.17774 20.046 7.09079 19.3651 7.01859C19.0121 7.01623 18.6644 6.93323 18.3484 6.77595C18.1909 6.45887 18.1082 6.10987 18.1066 5.75581C18.0301 5.07485 17.9509 4.37041 17.4109 4.05557C16.8708 3.74073 16.2246 4.01644 15.6019 4.29124C15.2892 4.46821 14.9398 4.57057 14.581 4.59043C14.3931 4.54 14.1105 4.15557 13.8852 3.8477L13.8792 3.83963C13.4859 3.30938 13.0427 2.71191 12.4041 2.71191C11.7627 2.71191 11.3185 3.3147 10.9264 3.8467L10.9256 3.8477L10.9126 3.86533C10.6871 4.17097 10.4116 4.54437 10.2299 4.59128C9.87138 4.56968 9.52234 4.46743 9.20889 4.2921C8.58272 4.0164 7.93743 3.74159 7.40258 4.05121C6.86772 4.36083 6.77816 5.07049 6.7016 5.75577C6.69911 6.1086 6.61644 6.45626 6.45981 6.77244C6.14445 6.92748 5.79805 7.00893 5.44665 7.01072C4.76483 7.08724 4.05949 7.16641 3.74555 7.70648C3.43161 8.24655 3.70735 8.89192 3.98216 9.51549C4.15978 9.82894 4.26218 10.1793 4.28134 10.5391C4.23092 10.7269 3.84649 11.0105 3.53862 11.2348C3.00638 11.6262 2.40283 12.0715 2.40283 12.7133C2.40283 13.3551 3.00638 13.8004 3.53952 14.1918L3.55412 14.2026C3.85952 14.4277 4.23602 14.7052 4.28224 14.8875C4.26251 15.2461 4.1601 15.5953 3.98306 15.9077C3.71172 16.5304 3.43169 17.1757 3.74302 17.7123C4.05436 18.2489 4.7623 18.3358 5.44327 18.408C5.79622 18.4104 6.14396 18.4934 6.45994 18.6507C6.61746 18.9678 6.70017 19.3168 6.70172 19.6708C6.77824 20.3518 6.85741 21.0562 7.39748 21.3711C7.9331 21.6833 8.56795 21.407 9.18665 21.1378L9.20208 21.131C9.51798 20.956 9.86943 20.8549 10.23 20.8354C10.4179 20.8858 10.7005 21.2702 10.9258 21.5781L10.9264 21.5789C11.3185 22.1109 11.7628 22.7139 12.4043 22.7139C13.0457 22.7139 13.4899 22.1111 13.882 21.5791L13.8827 21.5781L13.8958 21.5604C14.1213 21.2548 14.3968 20.8814 14.5785 20.8345C14.9373 20.8548 15.2865 20.9571 15.5995 21.1337C16.2222 21.405 16.8675 21.6833 17.4032 21.3746C17.9389 21.0658 18.0276 20.3553 18.1042 19.6735C18.1067 19.3206 18.1893 18.973 18.346 18.6568C18.6619 18.5005 19.0093 18.4181 19.3617 18.4159C20.0436 18.3394 20.7489 18.2602 21.0628 17.7202C21.3737 17.1854 21.0988 16.5516 20.8307 15.9338L20.8228 15.9156C20.6458 15.6005 20.5445 15.2485 20.5271 14.8876C20.5776 14.6997 20.962 14.4162 21.2698 14.1918L21.2702 14.1916C21.8023 13.7994 22.4065 13.3542 22.4065 12.7134C22.4065 12.0724 21.8019 11.6262 21.2688 11.2348ZM9.79516 14.8884C9.65831 14.8884 9.52941 14.8239 9.44731 14.7144L7.62098 12.2793V14.4535C7.62098 14.6937 7.42628 14.8884 7.18612 14.8884C6.94597 14.8884 6.75127 14.6937 6.75127 14.4535V10.9748C6.75127 10.7347 6.94597 10.54 7.18612 10.54C7.32297 10.54 7.45188 10.6044 7.53398 10.7139L9.36031 13.149V10.9748C9.36031 10.7347 9.55501 10.54 9.79516 10.54C10.0353 10.54 10.23 10.7347 10.23 10.9748V14.4535C10.2299 14.6406 10.1101 14.8066 9.93259 14.8658C9.88832 14.8808 9.84192 14.8884 9.79516 14.8884ZM11.5346 14.8884H13.274C13.5141 14.8884 13.7088 14.6937 13.7088 14.4536C13.7088 14.2134 13.5141 14.0187 13.274 14.0187H11.9694V13.1501H13.274C13.5141 13.1501 13.7088 12.9554 13.7088 12.7152C13.7088 12.4751 13.5141 12.2804 13.274 12.2804H11.9694V11.4097H13.274C13.5141 11.4097 13.7088 11.215 13.7088 10.9748C13.7088 10.7347 13.5141 10.54 13.274 10.54H11.5346C11.2944 10.54 11.0997 10.7347 11.0997 10.9748V12.7152V14.4535C11.0997 14.6937 11.2944 14.8884 11.5346 14.8884ZM17.2092 14.5913C17.2684 14.7692 17.4349 14.889 17.6223 14.8888L17.6397 14.8879C17.8328 14.8806 17.998 14.7467 18.045 14.5592L18.9146 11.0805C18.9728 10.8472 18.8308 10.6111 18.5976 10.553C18.3644 10.4949 18.1283 10.6368 18.0702 10.87L17.5632 12.8998L17.1657 11.7075C17.1204 11.6074 17.0402 11.5273 16.9402 11.4819C16.7122 11.3786 16.4437 11.4796 16.3404 11.7075L15.9429 12.8998L15.4359 10.87C15.3778 10.6368 15.1416 10.4949 14.9085 10.553C14.6753 10.6111 14.5333 10.8473 14.5915 11.0805L15.4611 14.5592C15.5081 14.7467 15.6732 14.8806 15.8664 14.8879C16.0616 14.9025 16.2405 14.779 16.296 14.5913L16.7526 13.2198L17.2092 14.5913Z" fill="white"/>
</svg>
