<svg width="37" height="42" viewBox="0 0 37 42" fill="none" xmlns="http://www.w3.org/2000/svg">
<path d="M23.048 0H13.2532C11.0859 0 9.31445 1.75056 9.31445 3.91792V5.87689C9.31445 8.04425 11.065 9.79481 13.2324 9.79481H23.048C25.2154 9.79481 26.966 8.04425 26.966 5.87689V3.91792C26.9868 1.75056 25.2154 0 23.048 0Z" fill="#1E99D3"/>
<path d="M29.0718 5.87671C29.0718 9.19028 26.3626 11.8995 23.0491 11.8995H13.2543C9.94069 11.8995 7.23149 9.19028 7.23149 5.87671C7.23149 4.70967 5.98109 3.98027 4.93909 4.52211C2.00064 6.08511 0 9.19028 0 12.7539V32.3644C0 37.491 4.18885 41.6799 9.31549 41.6799H26.9878C32.1145 41.6799 36.3033 37.491 36.3033 32.3644V12.7539C36.3033 9.19028 34.3027 6.08511 31.3642 4.52211C30.3222 3.98027 29.0718 4.70967 29.0718 5.87671ZM18.9436 31.1557H9.81565C8.96121 31.1557 8.25265 30.4471 8.25265 29.5927C8.25265 28.7382 8.96121 28.0297 9.81565 28.0297H18.9436C19.798 28.0297 20.5066 28.7382 20.5066 29.5927C20.5066 30.4471 19.798 31.1557 18.9436 31.1557ZM24.4037 22.8197H9.81565C8.96121 22.8197 8.25265 22.1111 8.25265 21.2566C8.25265 20.4022 8.96121 19.6936 9.81565 19.6936H24.4037C25.2581 19.6936 25.9667 20.4022 25.9667 21.2566C25.9667 22.1111 25.2581 22.8197 24.4037 22.8197Z" fill="#1E99D3"/>
</svg>
