<svg width="42" height="42" viewBox="0 0 42 42" fill="none" xmlns="http://www.w3.org/2000/svg">
<path d="M37.6712 10.264C37.6712 11.386 37.0686 12.4041 36.1128 12.9236L32.4976 14.8766L29.4225 16.5181L23.0438 19.9671C22.3582 20.3411 21.6102 20.5281 20.8414 20.5281C20.0727 20.5281 19.3247 20.3411 18.639 19.9671L5.57003 12.9236C4.61426 12.4041 4.01172 11.386 4.01172 10.264C4.01172 9.14207 4.61426 8.12397 5.57003 7.60454L9.66318 5.40213L12.9252 3.63605L18.639 0.56099C20.0103 -0.186997 21.6725 -0.186997 23.0438 0.56099L36.1128 7.60454C37.0686 8.12397 37.6712 9.14207 37.6712 10.264Z" fill="#1E99D3"/>
<path d="M16.4765 22.419L4.3217 16.352C3.38672 15.8741 2.30629 15.9364 1.41286 16.4766C0.519436 17.0168 0 17.9726 0 19.0115V30.5014C0 32.496 1.1012 34.2829 2.88806 35.1763L15.0429 41.2433C15.4584 41.4511 15.9155 41.555 16.3726 41.555C16.9128 41.555 17.453 41.4095 17.9309 41.0979C18.8243 40.5577 19.3438 39.6019 19.3438 38.563V27.0731C19.3646 25.0993 18.2634 23.3124 16.4765 22.419Z" fill="#1E99D3"/>
<path d="M41.68 19.0117V30.5016C41.68 32.4755 40.5788 34.2623 38.7919 35.1558L26.6371 41.2436C26.2216 41.4513 25.7645 41.5552 25.3074 41.5552C24.7672 41.5552 24.227 41.4098 23.7283 41.0981C22.8556 40.5579 22.3154 39.6021 22.3154 38.5633V27.0941C22.3154 25.0995 23.4166 23.3126 25.2035 22.4192L29.6706 20.196L32.7873 18.6377L37.3583 16.3522C38.2933 15.8743 39.3737 15.9159 40.2671 16.4769C41.1398 17.0171 41.68 17.9728 41.68 19.0117Z" fill="#1E99D3"/>
<path d="M32.4965 14.8768L29.4214 16.5182L9.66211 5.40231L12.9242 3.63623L31.9978 14.3989C32.2056 14.5236 32.3718 14.6898 32.4965 14.8768Z" fill="#1E99D3"/>
</svg>
