<svg width="25" height="25" viewBox="0 0 25 25" fill="none" xmlns="http://www.w3.org/2000/svg">
<path d="M19.735 15.4568L18.735 13.7968C18.525 13.4268 18.335 12.7268 18.335 12.3168V9.7868C18.335 7.4368 16.955 5.4068 14.965 4.4568C14.445 3.5368 13.485 2.9668 12.385 2.9668C11.295 2.9668 10.315 3.5568 9.79496 4.4868C7.84496 5.4568 6.49496 7.4668 6.49496 9.7868V12.3168C6.49496 12.7268 6.30496 13.4268 6.09496 13.7868L5.08496 15.4568C4.68496 16.1268 4.59496 16.8668 4.84496 17.5468C5.08496 18.2168 5.65496 18.7368 6.39496 18.9868C8.33496 19.6468 10.375 19.9668 12.415 19.9668C14.455 19.9668 16.495 19.6468 18.435 18.9968C19.135 18.7668 19.675 18.2368 19.935 17.5468C20.195 16.8568 20.125 16.0968 19.735 15.4568Z" fill="#1E99D3"/>
<path d="M15.2252 20.9768C14.8052 22.1368 13.6952 22.9668 12.3952 22.9668C11.6052 22.9668 10.8252 22.6468 10.2752 22.0768C9.9552 21.7768 9.7152 21.3768 9.5752 20.9668C9.7052 20.9868 9.83519 20.9968 9.97519 21.0168C10.2052 21.0468 10.4452 21.0768 10.6852 21.0968C11.2552 21.1468 11.8352 21.1768 12.4152 21.1768C12.9852 21.1768 13.5552 21.1468 14.1152 21.0968C14.3252 21.0768 14.5352 21.0668 14.7352 21.0368C14.8952 21.0168 15.0552 20.9968 15.2252 20.9768Z" fill="#1E99D3"/>
</svg>
