<svg width="52" height="51" viewBox="0 0 52 51" fill="none" xmlns="http://www.w3.org/2000/svg">
<path fill-rule="evenodd" clip-rule="evenodd" d="M28.9254 10.1844C28.9297 11.3961 27.9262 12.3816 26.6841 12.3857C23.3047 12.397 19.9625 13.0847 16.8649 14.4047C13.7676 15.7246 10.9805 17.6496 8.67542 20.0609C7.82834 20.947 6.40527 20.9955 5.49691 20.1692C4.58853 19.3428 4.53885 17.9546 5.3859 17.0685C8.11006 14.2187 11.404 11.9437 15.0643 10.3839C18.7243 8.82427 22.6741 8.01132 26.6688 7.99807C27.9109 7.99394 28.9211 8.97282 28.9254 10.1844ZM34.1735 8.6406C35.0517 7.78386 36.4757 7.78386 37.3539 8.6406L40.2615 11.477L43.1691 8.6406C44.0473 7.78386 45.4714 7.78386 46.3496 8.6406C47.2278 9.49737 47.2278 10.8864 46.3496 11.7432L43.4419 14.5795L46.3496 17.4159C47.2278 18.2727 47.2278 19.6617 46.3496 20.5185C45.4714 21.3753 44.0473 21.3753 43.1691 20.5185L40.2615 17.6821L37.3539 20.5185C36.4757 21.3753 35.0517 21.3753 34.1735 20.5185C33.2953 19.6617 33.2953 18.2727 34.1735 17.4159L37.0811 14.5795L34.1735 11.7432C33.2953 10.8864 33.2953 9.49737 34.1735 8.6406ZM28.9229 18.9557C28.9297 20.1673 27.928 21.1547 26.6859 21.1611C24.5402 21.1721 22.4188 21.6111 20.4532 22.4509C18.4876 23.2907 16.7187 24.5136 15.2553 26.0444C14.4082 26.9305 12.9851 26.979 12.0768 26.1528C11.1684 25.3264 11.1187 23.9381 11.9657 23.052C13.8473 21.0837 16.1216 19.5114 18.6488 18.4317C21.1761 17.352 23.9033 16.7877 26.6623 16.7735C27.9044 16.7671 28.9164 17.7441 28.9229 18.9557ZM30.3116 30.6462C29.182 30.1739 27.9653 29.9324 26.7367 29.9365C25.5072 29.9407 24.291 30.1904 23.1655 30.6699C22.0394 31.1499 21.0261 31.8498 20.188 32.7267C19.3409 33.6128 17.9178 33.6612 17.0094 32.8348C16.1011 32.0086 16.0514 30.6203 16.8984 29.7343C18.1556 28.419 19.6757 27.3693 21.3649 26.6493C23.0546 25.929 24.8782 25.5552 26.721 25.5488C28.5644 25.5425 30.3894 25.9049 32.0835 26.6133C33.7774 27.3215 35.3056 28.3607 36.5724 29.6676C37.4258 30.5479 37.386 31.9364 36.4836 32.769C35.5811 33.6016 34.1577 33.5627 33.3045 32.6823C32.4602 31.8116 31.4417 31.1186 30.3116 30.6462ZM22.2702 38.7119C22.2702 36.2886 24.2838 34.3242 26.768 34.3242C29.2521 34.3242 31.2658 36.2886 31.2658 38.7119C31.2658 41.1352 29.2521 43.0996 26.768 43.0996C24.2838 43.0996 22.2702 41.1352 22.2702 38.7119Z" fill="#DF0000"/>
</svg>
