<svg width="25" height="25" viewBox="0 0 25 25" fill="none" xmlns="http://www.w3.org/2000/svg">
<path d="M12.0342 2.59741C6.52418 2.59741 2.03418 7.08741 2.03418 12.5974C2.03418 18.1074 6.52418 22.5974 12.0342 22.5974C17.5442 22.5974 22.0342 18.1074 22.0342 12.5974C22.0342 7.08741 17.5442 2.59741 12.0342 2.59741ZM16.8142 10.2974L11.1442 15.9674C11.0042 16.1074 10.8142 16.1874 10.6142 16.1874C10.4142 16.1874 10.2242 16.1074 10.0842 15.9674L7.25418 13.1374C6.96418 12.8474 6.96418 12.3674 7.25418 12.0774C7.54418 11.7874 8.02418 11.7874 8.31418 12.0774L10.6142 14.3774L15.7542 9.23741C16.0442 8.94741 16.5242 8.94741 16.8142 9.23741C17.1042 9.52741 17.1042 9.99741 16.8142 10.2974Z" fill="white"/>
</svg>
