<svg width="25" height="25" viewBox="0 0 25 25" fill="none" xmlns="http://www.w3.org/2000/svg">
<path d="M10.8564 13.3701L5.00639 10.4501C4.55639 10.2201 4.03639 10.2501 3.60639 10.5101C3.17639 10.7701 2.92639 11.2301 2.92639 11.7301V17.2601C2.92639 18.2201 3.45639 19.0801 4.31639 19.5101L10.1664 22.4301C10.3664 22.5301 10.5864 22.5801 10.8064 22.5801C11.0664 22.5801 11.3264 22.5101 11.5564 22.3601C11.9864 22.1001 12.2364 21.6401 12.2364 21.1401V15.6101C12.2464 14.6601 11.7164 13.8001 10.8564 13.3701Z" fill="#868A96"/>
<path fill-rule="evenodd" clip-rule="evenodd" d="M20.3063 8.80008C20.7663 8.55008 21.0563 8.06008 21.0563 7.52008C21.0563 6.98008 20.7663 6.49008 20.3063 6.24008L14.0163 2.85008C13.3563 2.49008 12.5563 2.49008 11.8963 2.85008L9.14632 4.33008L7.57632 5.18008L5.60632 6.24008C5.14632 6.49008 4.85632 6.98008 4.85632 7.52008C4.85632 8.06008 5.14632 8.55008 5.60632 8.80008L11.8963 12.1901C12.2263 12.3701 12.5863 12.4601 12.9563 12.4601C13.3263 12.4601 13.6863 12.3701 14.0163 12.1901L17.0863 10.5301L17.0864 10.53L7.57654 5.18008L9.14654 4.33008L18.3265 9.51008C18.4265 9.57006 18.5065 9.65003 18.5665 9.73999L20.3063 8.80008Z" fill="#868A96"/>
<path fill-rule="evenodd" clip-rule="evenodd" d="M22.9864 17.2602V11.7302C22.9864 11.2302 22.7264 10.7702 22.3064 10.5102C21.8764 10.2402 21.3564 10.2202 20.9064 10.4502L18.7064 11.5502L17.2064 12.3002L15.0564 13.3702C14.1964 13.8002 13.6664 14.6602 13.6664 15.6202V21.1402C13.6664 21.6402 13.9264 22.1002 14.3464 22.3602C14.5864 22.5102 14.8464 22.5802 15.1064 22.5802C15.3264 22.5802 15.5464 22.5302 15.7464 22.4302L21.5964 19.5002C22.4564 19.0702 22.9864 18.2102 22.9864 17.2602ZM18.7064 13.8203V11.5503L17.2064 12.3003V13.8203C17.2064 14.2303 17.5464 14.5703 17.9564 14.5703C18.3664 14.5703 18.7064 14.2303 18.7064 13.8203Z" fill="#868A96"/>
</svg>
