<svg width="25" height="25" viewBox="0 0 25 25" fill="none" xmlns="http://www.w3.org/2000/svg">
<path d="M22.6133 10.4663C22.2033 10.4663 21.8633 10.1263 21.8633 9.71631V7.71631C21.8633 5.13631 20.1933 3.46631 17.6133 3.46631H7.61328C5.03328 3.46631 3.36328 5.13631 3.36328 7.71631V9.71631C3.36328 10.1263 3.02328 10.4663 2.61328 10.4663C2.20328 10.4663 1.86328 10.1263 1.86328 9.71631V7.71631C1.86328 4.27631 4.17328 1.96631 7.61328 1.96631H17.6133C21.0533 1.96631 23.3633 4.27631 23.3633 7.71631V9.71631C23.3633 10.1263 23.0233 10.4663 22.6133 10.4663Z" fill="#FFB340"/>
<path d="M17.6133 23.4658H7.61328C4.17328 23.4658 1.86328 21.1558 1.86328 17.7158V15.7158C1.86328 15.3058 2.20328 14.9658 2.61328 14.9658C3.02328 14.9658 3.36328 15.3058 3.36328 15.7158V17.7158C3.36328 20.2958 5.03328 21.9658 7.61328 21.9658H17.6133C20.1933 21.9658 21.8633 20.2958 21.8633 17.7158V15.7158C21.8633 15.3058 22.2033 14.9658 22.6133 14.9658C23.0233 14.9658 23.3633 15.3058 23.3633 15.7158V17.7158C23.3633 21.1558 21.0533 23.4658 17.6133 23.4658Z" fill="#FFB340"/>
<path d="M17.0134 8.92627L13.2534 6.89627C12.8534 6.68627 12.3834 6.68627 11.9834 6.89627L8.21344 8.92627C7.94344 9.07627 7.77344 9.36627 7.77344 9.68627C7.77344 10.0163 7.94344 10.3063 8.21344 10.4563L11.9734 12.4863C12.1734 12.5963 12.3934 12.6463 12.6134 12.6463C12.8334 12.6463 13.0534 12.5963 13.2534 12.4863L17.0134 10.4563C17.2834 10.3063 17.4534 10.0163 17.4534 9.68627C17.4534 9.36627 17.2834 9.07627 17.0134 8.92627Z" fill="#FFB340"/>
<path d="M11.3533 13.1853L7.85328 11.4353C7.58328 11.3053 7.27328 11.3153 7.01328 11.4753C6.76328 11.6353 6.61328 11.9053 6.61328 12.2053V15.5153C6.61328 16.0853 6.93328 16.6053 7.44328 16.8553L10.9433 18.6053C11.0633 18.6653 11.1933 18.6953 11.3333 18.6953C11.4933 18.6953 11.6433 18.6553 11.7833 18.5653C12.0433 18.4053 12.1933 18.1353 12.1933 17.8353V14.5253C12.1833 13.9553 11.8733 13.4453 11.3533 13.1853Z" fill="#FFB340"/>
<path d="M18.2032 11.4753C17.9432 11.3153 17.6332 11.3053 17.3632 11.4353L13.8632 13.1853C13.3532 13.4453 13.0332 13.9553 13.0332 14.5253V17.8353C13.0332 18.1353 13.1832 18.4053 13.4432 18.5653C13.5832 18.6553 13.7332 18.6953 13.8932 18.6953C14.0232 18.6953 14.1532 18.6653 14.2832 18.6053L17.7832 16.8553C18.2932 16.5953 18.6132 16.0853 18.6132 15.5153V12.2053C18.6132 11.9053 18.4632 11.6353 18.2032 11.4753Z" fill="#FFB340"/>
</svg>
