<svg width="324" height="216" viewBox="0 0 324 216" fill="none" xmlns="http://www.w3.org/2000/svg">
<rect x="83.9219" y="1.48347" width="54.9658" height="54.9658" rx="6.5" transform="rotate(45 83.9219 1.48347)" stroke="#1E99D3" stroke-opacity="0.2"/>
<rect x="39.5918" y="46.1085" width="54.9658" height="54.9658" rx="6.5" transform="rotate(45 39.5918 46.1085)" stroke="#1E99D3" stroke-opacity="0.2"/>
<rect x="127.959" y="46.1085" width="54.9658" height="54.9658" rx="6.5" transform="rotate(45 127.959 46.1085)" stroke="#1E99D3" stroke-opacity="0.2"/>
<rect x="239.74" y="1.48347" width="54.9658" height="54.9658" rx="6.5" transform="rotate(45 239.74 1.48347)" stroke="#1E99D3" stroke-opacity="0.2"/>
<rect x="195.41" y="46.1085" width="54.9658" height="54.9658" rx="6.5" transform="rotate(45 195.41 46.1085)" stroke="#1E99D3" stroke-opacity="0.2"/>
<rect x="283.777" y="46.1085" width="54.9658" height="54.9658" rx="6.5" transform="rotate(45 283.777 46.1085)" stroke="#1E99D3" stroke-opacity="0.2"/>
<rect x="83.9219" y="92.4346" width="54.9658" height="54.9658" rx="6.5" transform="rotate(45 83.9219 92.4346)" stroke="#1E99D3" stroke-opacity="0.2"/>
<rect x="39.5918" y="137.06" width="54.9658" height="54.9658" rx="6.5" transform="rotate(45 39.5918 137.06)" stroke="#1E99D3" stroke-opacity="0.2"/>
<rect x="127.959" y="137.06" width="54.9658" height="54.9658" rx="6.5" transform="rotate(45 127.959 137.06)" stroke="#1E99D3" stroke-opacity="0.2"/>
<rect x="239.74" y="92.4346" width="54.9658" height="54.9658" rx="6.5" transform="rotate(45 239.74 92.4346)" stroke="#1E99D3" stroke-opacity="0.2"/>
<rect x="195.41" y="137.06" width="54.9658" height="54.9658" rx="6.5" transform="rotate(45 195.41 137.06)" stroke="#1E99D3" stroke-opacity="0.2"/>
<rect x="283.777" y="137.06" width="54.9658" height="54.9658" rx="6.5" transform="rotate(45 283.777 137.06)" stroke="#1E99D3" stroke-opacity="0.2"/>
</svg>
