<svg width="400" height="140" viewBox="0 0 400 140" fill="none" xmlns="http://www.w3.org/2000/svg">
<g opacity="0.5">
<rect x="374.553" y="103.528" width="18.6803" height="18.6803" rx="1.5" transform="rotate(-45 374.553 103.528)" stroke="#EFEFF1"/>
<rect x="346.721" y="103.528" width="18.6803" height="18.6803" rx="1.5" transform="rotate(-45 346.721 103.528)" stroke="#EFEFF1"/>
<rect x="318.889" y="103.528" width="18.6803" height="18.6803" rx="1.5" transform="rotate(-45 318.889 103.528)" stroke="#EFEFF1"/>
<rect x="291.056" y="103.528" width="18.6803" height="18.6803" rx="1.5" transform="rotate(-45 291.056 103.528)" stroke="#EFEFF1"/>
<rect x="263.224" y="103.528" width="18.6803" height="18.6803" rx="1.5" transform="rotate(-45 263.224 103.528)" stroke="#EFEFF1"/>
<rect x="235.392" y="103.528" width="18.6803" height="18.6803" rx="1.5" transform="rotate(-45 235.392 103.528)" stroke="#EFEFF1"/>
<rect x="207.56" y="103.528" width="18.6803" height="18.6803" rx="1.5" transform="rotate(-45 207.56 103.528)" stroke="#EFEFF1"/>
<rect x="179.728" y="103.528" width="18.6803" height="18.6803" rx="1.5" transform="rotate(-45 179.728 103.528)" stroke="#EFEFF1"/>
<rect x="151.896" y="103.528" width="18.6803" height="18.6803" rx="1.5" transform="rotate(-45 151.896 103.528)" stroke="#EFEFF1"/>
<rect x="124.064" y="103.528" width="18.6803" height="18.6803" rx="1.5" transform="rotate(-45 124.064 103.528)" stroke="#EFEFF1"/>
<rect x="96.231" y="103.528" width="18.6803" height="18.6803" rx="1.5" transform="rotate(-45 96.231 103.528)" stroke="#EFEFF1"/>
<rect x="68.399" y="103.528" width="18.6803" height="18.6803" rx="1.5" transform="rotate(-45 68.399 103.528)" stroke="#EFEFF1"/>
<rect x="40.567" y="103.528" width="18.6803" height="18.6803" rx="1.5" transform="rotate(-45 40.567 103.528)" stroke="#EFEFF1"/>
<rect x="12.7345" y="103.528" width="18.6803" height="18.6803" rx="1.5" transform="rotate(-45 12.7345 103.528)" stroke="#EFEFF1"/>
<rect x="-15.0976" y="103.528" width="18.6803" height="18.6803" rx="1.5" transform="rotate(-45 -15.0976 103.528)" stroke="#EFEFF1"/>
</g>
<g opacity="0.3">
<rect x="374.553" y="59.0557" width="18.6803" height="18.6803" rx="1.5" transform="rotate(-45 374.553 59.0557)" stroke="#EFEFF1"/>
<rect x="346.721" y="59.0557" width="18.6803" height="18.6803" rx="1.5" transform="rotate(-45 346.721 59.0557)" stroke="#EFEFF1"/>
<rect x="318.889" y="59.0557" width="18.6803" height="18.6803" rx="1.5" transform="rotate(-45 318.889 59.0557)" stroke="#EFEFF1"/>
<rect x="291.056" y="59.0557" width="18.6803" height="18.6803" rx="1.5" transform="rotate(-45 291.056 59.0557)" stroke="#EFEFF1"/>
<rect x="263.224" y="59.0557" width="18.6803" height="18.6803" rx="1.5" transform="rotate(-45 263.224 59.0557)" stroke="#EFEFF1"/>
<rect x="235.392" y="59.0557" width="18.6803" height="18.6803" rx="1.5" transform="rotate(-45 235.392 59.0557)" stroke="#EFEFF1"/>
<rect x="207.56" y="59.0557" width="18.6803" height="18.6803" rx="1.5" transform="rotate(-45 207.56 59.0557)" stroke="#EFEFF1"/>
<rect x="179.728" y="59.0557" width="18.6803" height="18.6803" rx="1.5" transform="rotate(-45 179.728 59.0557)" stroke="#EFEFF1"/>
<rect x="151.896" y="59.0557" width="18.6803" height="18.6803" rx="1.5" transform="rotate(-45 151.896 59.0557)" stroke="#EFEFF1"/>
<rect x="124.064" y="59.0557" width="18.6803" height="18.6803" rx="1.5" transform="rotate(-45 124.064 59.0557)" stroke="#EFEFF1"/>
<rect x="96.231" y="59.0557" width="18.6803" height="18.6803" rx="1.5" transform="rotate(-45 96.231 59.0557)" stroke="#EFEFF1"/>
<rect x="68.399" y="59.0557" width="18.6803" height="18.6803" rx="1.5" transform="rotate(-45 68.399 59.0557)" stroke="#EFEFF1"/>
<rect x="40.567" y="59.0557" width="18.6803" height="18.6803" rx="1.5" transform="rotate(-45 40.567 59.0557)" stroke="#EFEFF1"/>
<rect x="12.7345" y="59.0557" width="18.6803" height="18.6803" rx="1.5" transform="rotate(-45 12.7345 59.0557)" stroke="#EFEFF1"/>
<rect x="-15.0976" y="59.0557" width="18.6803" height="18.6803" rx="1.5" transform="rotate(-45 -15.0976 59.0557)" stroke="#EFEFF1"/>
</g>
<g opacity="0.1">
<rect x="374.553" y="14.583" width="18.6803" height="18.6803" rx="1.5" transform="rotate(-45 374.553 14.583)" stroke="#EFEFF1"/>
<rect x="346.721" y="14.583" width="18.6803" height="18.6803" rx="1.5" transform="rotate(-45 346.721 14.583)" stroke="#EFEFF1"/>
<rect x="318.889" y="14.583" width="18.6803" height="18.6803" rx="1.5" transform="rotate(-45 318.889 14.583)" stroke="#EFEFF1"/>
<rect x="291.056" y="14.583" width="18.6803" height="18.6803" rx="1.5" transform="rotate(-45 291.056 14.583)" stroke="#EFEFF1"/>
<rect x="263.224" y="14.583" width="18.6803" height="18.6803" rx="1.5" transform="rotate(-45 263.224 14.583)" stroke="#EFEFF1"/>
<rect x="235.392" y="14.583" width="18.6803" height="18.6803" rx="1.5" transform="rotate(-45 235.392 14.583)" stroke="#EFEFF1"/>
<rect x="207.56" y="14.583" width="18.6803" height="18.6803" rx="1.5" transform="rotate(-45 207.56 14.583)" stroke="#EFEFF1"/>
<rect x="179.728" y="14.583" width="18.6803" height="18.6803" rx="1.5" transform="rotate(-45 179.728 14.583)" stroke="#EFEFF1"/>
<rect x="151.896" y="14.583" width="18.6803" height="18.6803" rx="1.5" transform="rotate(-45 151.896 14.583)" stroke="#EFEFF1"/>
<rect x="124.064" y="14.583" width="18.6803" height="18.6803" rx="1.5" transform="rotate(-45 124.064 14.583)" stroke="#EFEFF1"/>
<rect x="96.231" y="14.583" width="18.6803" height="18.6803" rx="1.5" transform="rotate(-45 96.231 14.583)" stroke="#EFEFF1"/>
<rect x="68.399" y="14.583" width="18.6803" height="18.6803" rx="1.5" transform="rotate(-45 68.399 14.583)" stroke="#EFEFF1"/>
<rect x="40.567" y="14.583" width="18.6803" height="18.6803" rx="1.5" transform="rotate(-45 40.567 14.583)" stroke="#EFEFF1"/>
<rect x="12.7345" y="14.583" width="18.6803" height="18.6803" rx="1.5" transform="rotate(-45 12.7345 14.583)" stroke="#EFEFF1"/>
<rect x="-15.0976" y="14.583" width="18.6803" height="18.6803" rx="1.5" transform="rotate(-45 -15.0976 14.583)" stroke="#EFEFF1"/>
</g>
<g opacity="0.6">
<rect x="388.469" y="125.141" width="18.6803" height="18.6803" rx="1.5" transform="rotate(-45 388.469 125.141)" stroke="#EFEFF1"/>
<rect x="360.637" y="125.141" width="18.6803" height="18.6803" rx="1.5" transform="rotate(-45 360.637 125.141)" stroke="#EFEFF1"/>
<rect x="332.805" y="125.141" width="18.6803" height="18.6803" rx="1.5" transform="rotate(-45 332.805 125.141)" stroke="#EFEFF1"/>
<rect x="304.972" y="125.141" width="18.6803" height="18.6803" rx="1.5" transform="rotate(-45 304.972 125.141)" stroke="#EFEFF1"/>
<rect x="277.14" y="125.141" width="18.6803" height="18.6803" rx="1.5" transform="rotate(-45 277.14 125.141)" stroke="#EFEFF1"/>
<rect x="249.308" y="125.141" width="18.6803" height="18.6803" rx="1.5" transform="rotate(-45 249.308 125.141)" stroke="#EFEFF1"/>
<rect x="221.476" y="125.141" width="18.6803" height="18.6803" rx="1.5" transform="rotate(-45 221.476 125.141)" stroke="#EFEFF1"/>
<rect x="193.644" y="125.141" width="18.6803" height="18.6803" rx="1.5" transform="rotate(-45 193.644 125.141)" stroke="#EFEFF1"/>
<rect x="165.812" y="125.141" width="18.6803" height="18.6803" rx="1.5" transform="rotate(-45 165.812 125.141)" stroke="#EFEFF1"/>
<rect x="137.98" y="125.141" width="18.6803" height="18.6803" rx="1.5" transform="rotate(-45 137.98 125.141)" stroke="#EFEFF1"/>
<rect x="110.147" y="125.141" width="18.6803" height="18.6803" rx="1.5" transform="rotate(-45 110.147 125.141)" stroke="#EFEFF1"/>
<rect x="82.315" y="125.141" width="18.6803" height="18.6803" rx="1.5" transform="rotate(-45 82.315 125.141)" stroke="#EFEFF1"/>
<rect x="54.483" y="125.141" width="18.6803" height="18.6803" rx="1.5" transform="rotate(-45 54.483 125.141)" stroke="#EFEFF1"/>
<rect x="26.6505" y="125.141" width="18.6803" height="18.6803" rx="1.5" transform="rotate(-45 26.6505 125.141)" stroke="#EFEFF1"/>
<rect x="-1.18157" y="125.141" width="18.6803" height="18.6803" rx="1.5" transform="rotate(-45 -1.18157 125.141)" stroke="#EFEFF1"/>
</g>
<g opacity="0.4">
<rect x="388.469" y="80.6685" width="18.6803" height="18.6803" rx="1.5" transform="rotate(-45 388.469 80.6685)" stroke="#EFEFF1"/>
<rect x="360.637" y="80.6685" width="18.6803" height="18.6803" rx="1.5" transform="rotate(-45 360.637 80.6685)" stroke="#EFEFF1"/>
<rect x="332.805" y="80.6685" width="18.6803" height="18.6803" rx="1.5" transform="rotate(-45 332.805 80.6685)" stroke="#EFEFF1"/>
<rect x="304.972" y="80.6685" width="18.6803" height="18.6803" rx="1.5" transform="rotate(-45 304.972 80.6685)" stroke="#EFEFF1"/>
<rect x="277.14" y="80.6685" width="18.6803" height="18.6803" rx="1.5" transform="rotate(-45 277.14 80.6685)" stroke="#EFEFF1"/>
<rect x="249.308" y="80.6685" width="18.6803" height="18.6803" rx="1.5" transform="rotate(-45 249.308 80.6685)" stroke="#EFEFF1"/>
<rect x="221.476" y="80.6685" width="18.6803" height="18.6803" rx="1.5" transform="rotate(-45 221.476 80.6685)" stroke="#EFEFF1"/>
<rect x="193.644" y="80.6685" width="18.6803" height="18.6803" rx="1.5" transform="rotate(-45 193.644 80.6685)" stroke="#EFEFF1"/>
<rect x="165.812" y="80.6685" width="18.6803" height="18.6803" rx="1.5" transform="rotate(-45 165.812 80.6685)" stroke="#EFEFF1"/>
<rect x="137.98" y="80.6685" width="18.6803" height="18.6803" rx="1.5" transform="rotate(-45 137.98 80.6685)" stroke="#EFEFF1"/>
<rect x="110.147" y="80.6685" width="18.6803" height="18.6803" rx="1.5" transform="rotate(-45 110.147 80.6685)" stroke="#EFEFF1"/>
<rect x="82.315" y="80.6685" width="18.6803" height="18.6803" rx="1.5" transform="rotate(-45 82.315 80.6685)" stroke="#EFEFF1"/>
<rect x="54.483" y="80.6685" width="18.6803" height="18.6803" rx="1.5" transform="rotate(-45 54.483 80.6685)" stroke="#EFEFF1"/>
<rect x="26.6505" y="80.6685" width="18.6803" height="18.6803" rx="1.5" transform="rotate(-45 26.6505 80.6685)" stroke="#EFEFF1"/>
<rect x="-1.18157" y="80.6685" width="18.6803" height="18.6803" rx="1.5" transform="rotate(-45 -1.18157 80.6685)" stroke="#EFEFF1"/>
</g>
<g opacity="0.2">
<rect x="388.469" y="36.1958" width="18.6803" height="18.6803" rx="1.5" transform="rotate(-45 388.469 36.1958)" stroke="#EFEFF1"/>
<rect x="360.637" y="36.1958" width="18.6803" height="18.6803" rx="1.5" transform="rotate(-45 360.637 36.1958)" stroke="#EFEFF1"/>
<rect x="332.805" y="36.1958" width="18.6803" height="18.6803" rx="1.5" transform="rotate(-45 332.805 36.1958)" stroke="#EFEFF1"/>
<rect x="304.972" y="36.1958" width="18.6803" height="18.6803" rx="1.5" transform="rotate(-45 304.972 36.1958)" stroke="#EFEFF1"/>
<rect x="277.14" y="36.1958" width="18.6803" height="18.6803" rx="1.5" transform="rotate(-45 277.14 36.1958)" stroke="#EFEFF1"/>
<rect x="249.308" y="36.1958" width="18.6803" height="18.6803" rx="1.5" transform="rotate(-45 249.308 36.1958)" stroke="#EFEFF1"/>
<rect x="221.476" y="36.1958" width="18.6803" height="18.6803" rx="1.5" transform="rotate(-45 221.476 36.1958)" stroke="#EFEFF1"/>
<rect x="193.644" y="36.1958" width="18.6803" height="18.6803" rx="1.5" transform="rotate(-45 193.644 36.1958)" stroke="#EFEFF1"/>
<rect x="165.812" y="36.1958" width="18.6803" height="18.6803" rx="1.5" transform="rotate(-45 165.812 36.1958)" stroke="#EFEFF1"/>
<rect x="137.98" y="36.1958" width="18.6803" height="18.6803" rx="1.5" transform="rotate(-45 137.98 36.1958)" stroke="#EFEFF1"/>
<rect x="110.147" y="36.1958" width="18.6803" height="18.6803" rx="1.5" transform="rotate(-45 110.147 36.1958)" stroke="#EFEFF1"/>
<rect x="82.315" y="36.1958" width="18.6803" height="18.6803" rx="1.5" transform="rotate(-45 82.315 36.1958)" stroke="#EFEFF1"/>
<rect x="54.483" y="36.1958" width="18.6803" height="18.6803" rx="1.5" transform="rotate(-45 54.483 36.1958)" stroke="#EFEFF1"/>
<rect x="26.6505" y="36.1958" width="18.6803" height="18.6803" rx="1.5" transform="rotate(-45 26.6505 36.1958)" stroke="#EFEFF1"/>
<rect x="-1.18157" y="36.1958" width="18.6803" height="18.6803" rx="1.5" transform="rotate(-45 -1.18157 36.1958)" stroke="#EFEFF1"/>
</g>
</svg>
