<svg width="20" height="20" viewBox="0 0 20 20" fill="none" xmlns="http://www.w3.org/2000/svg">
<path d="M18.3333 9.37484H16.6333C16.3333 6.19984 13.8 3.65817 10.625 3.3665V1.6665C10.625 1.32484 10.3416 1.0415 9.99996 1.0415C9.65829 1.0415 9.37496 1.32484 9.37496 1.6665V3.3665C6.19996 3.6665 3.65829 6.19984 3.36663 9.37484H1.66663C1.32496 9.37484 1.04163 9.65817 1.04163 9.99984C1.04163 10.3415 1.32496 10.6248 1.66663 10.6248H3.36663C3.66663 13.7998 6.19996 16.3415 9.37496 16.6332V18.3332C9.37496 18.6748 9.65829 18.9582 9.99996 18.9582C10.3416 18.9582 10.625 18.6748 10.625 18.3332V16.6332C13.8 16.3332 16.3416 13.7998 16.6333 10.6248H18.3333C18.675 10.6248 18.9583 10.3415 18.9583 9.99984C18.9583 9.65817 18.675 9.37484 18.3333 9.37484ZM9.99996 12.5998C8.56663 12.5998 7.39996 11.4332 7.39996 9.99984C7.39996 8.5665 8.56663 7.39984 9.99996 7.39984C11.4333 7.39984 12.6 8.5665 12.6 9.99984C12.6 11.4332 11.4333 12.5998 9.99996 12.5998Z" fill="white"/>
</svg>
