<svg width="25" height="25" viewBox="0 0 25 25" fill="none" xmlns="http://www.w3.org/2000/svg">
<path d="M17.3977 9.84863H13.3477V16.0986C13.3477 16.5086 13.0077 16.8486 12.5977 16.8486C12.1877 16.8486 11.8477 16.5086 11.8477 16.0986V9.84863H7.79766C4.59766 9.84863 2.59766 11.8486 2.59766 15.0486V17.6386C2.59766 20.8486 4.59766 22.8486 7.79766 22.8486H17.3877C20.5877 22.8486 22.5877 20.8486 22.5877 17.6486V15.0486C22.5977 11.8486 20.5977 9.84863 17.3977 9.84863Z" fill="#868A96"/>
<path d="M13.3475 5.40857L15.4175 7.47857C15.5675 7.62857 15.7575 7.69857 15.9475 7.69857C16.1375 7.69857 16.3275 7.62857 16.4775 7.47857C16.7675 7.18857 16.7675 6.70857 16.4775 6.41857L13.1275 3.06857C12.8375 2.77857 12.3575 2.77857 12.0675 3.06857L8.7175 6.41857C8.4275 6.70857 8.4275 7.18857 8.7175 7.47857C9.0075 7.76857 9.4875 7.76857 9.7775 7.47857L11.8475 5.40857V9.84857H13.3475V5.40857Z" fill="#868A96"/>
</svg>
