<svg width="25" height="25" viewBox="0 0 25 25" fill="none" xmlns="http://www.w3.org/2000/svg">
<path d="M14.6133 3.84041V12.1504C14.6133 13.1704 13.7833 14.0004 12.7633 14.0004H3.61328C3.06328 14.0004 2.61328 13.5504 2.61328 13.0004V6.61041C2.61328 4.57041 4.26328 2.92041 6.30328 2.92041H13.6833C14.2033 2.92041 14.6133 3.33041 14.6133 3.84041Z" fill="#1E99D3"/>
<path d="M22.1133 16.4204C22.3933 16.4204 22.6133 16.6404 22.6133 16.9204V17.9204C22.6133 19.5804 21.2733 20.9204 19.6133 20.9204C19.6133 19.2704 18.2633 17.9204 16.6133 17.9204C14.9633 17.9204 13.6133 19.2704 13.6133 20.9204H11.6133C11.6133 19.2704 10.2633 17.9204 8.61328 17.9204C6.96328 17.9204 5.61328 19.2704 5.61328 20.9204C3.95328 20.9204 2.61328 19.5804 2.61328 17.9204V15.9204C2.61328 15.3704 3.06328 14.9204 3.61328 14.9204H13.1133C14.4933 14.9204 15.6133 13.8004 15.6133 12.4204V6.92041C15.6133 6.37041 16.0633 5.92041 16.6133 5.92041H17.4533C18.1733 5.92041 18.8333 6.31041 19.1933 6.93041L19.8333 8.05041C19.9233 8.21041 19.8033 8.42041 19.6133 8.42041C18.2333 8.42041 17.1133 9.54041 17.1133 10.9204V13.9204C17.1133 15.3004 18.2333 16.4204 19.6133 16.4204H22.1133Z" fill="#1E99D3"/>
<path d="M8.61328 22.9199C9.71785 22.9199 10.6133 22.0245 10.6133 20.9199C10.6133 19.8154 9.71785 18.9199 8.61328 18.9199C7.50871 18.9199 6.61328 19.8154 6.61328 20.9199C6.61328 22.0245 7.50871 22.9199 8.61328 22.9199Z" fill="#1E99D3"/>
<path d="M16.6133 22.9199C17.7179 22.9199 18.6133 22.0245 18.6133 20.9199C18.6133 19.8154 17.7179 18.9199 16.6133 18.9199C15.5087 18.9199 14.6133 19.8154 14.6133 20.9199C14.6133 22.0245 15.5087 22.9199 16.6133 22.9199Z" fill="#1E99D3"/>
<path d="M22.6133 13.4499V14.9199H19.6133C19.0633 14.9199 18.6133 14.4699 18.6133 13.9199V10.9199C18.6133 10.3699 19.0633 9.91992 19.6133 9.91992H20.9033L22.3533 12.4599C22.5233 12.7599 22.6133 13.0999 22.6133 13.4499Z" fill="#1E99D3"/>
</svg>
