<svg width="25" height="24" viewBox="0 0 25 24" fill="none" xmlns="http://www.w3.org/2000/svg">
<path d="M14.6249 3.83155L16.3849 7.16948C16.6249 7.63414 17.2649 8.07982 17.8049 8.16517L20.9949 8.66776C23.0349 8.99017 23.5149 10.3936 22.0449 11.7781L19.5649 14.1298C19.1449 14.5281 18.9149 15.2962 19.0449 15.8462L19.7549 18.7574C20.3149 21.0617 19.0249 21.9531 16.8749 20.7488L13.8849 19.0703C13.3449 18.7669 12.4549 18.7669 11.9049 19.0703L8.91493 20.7488C6.77493 21.9531 5.47493 21.0522 6.03493 18.7574L6.74493 15.8462C6.87493 15.2962 6.64493 14.5281 6.22493 14.1298L3.74493 11.7781C2.28493 10.3936 2.75493 8.99017 4.79493 8.66776L7.98493 8.16517C8.51493 8.07982 9.15493 7.63414 9.39493 7.16948L11.1549 3.83155C12.1149 2.02034 13.6749 2.02034 14.6249 3.83155Z" fill="white"/>
</svg>
