<svg width="21" height="21" viewBox="0 0 21 21" fill="none" xmlns="http://www.w3.org/2000/svg">
<path d="M17.7997 5.07121C16.458 4.93788 15.1164 4.83788 13.7664 4.76288V4.75455L13.583 3.67121C13.458 2.90455 13.2747 1.75455 11.3247 1.75455H9.14138C7.19972 1.75455 7.01638 2.85455 6.88305 3.66288L6.70805 4.72955C5.93305 4.77955 5.15805 4.82955 4.38305 4.90455L2.68305 5.07121C2.33305 5.10455 2.08305 5.41288 2.11638 5.75455C2.14972 6.09621 2.44972 6.34621 2.79972 6.31288L4.49972 6.14621C8.86638 5.71288 13.2664 5.87955 17.6831 6.32121C17.708 6.32121 17.7247 6.32121 17.7497 6.32121C18.0664 6.32121 18.3414 6.07955 18.3747 5.75455C18.3997 5.41288 18.1497 5.10455 17.7997 5.07121Z" fill="#868A96"/>
<path d="M16.2664 7.49623C16.0664 7.2879 15.7914 7.17123 15.5081 7.17123H4.97474C4.69141 7.17123 4.40808 7.2879 4.21641 7.49623C4.02474 7.70457 3.91641 7.9879 3.93308 8.27957L4.44974 16.8296C4.54141 18.0962 4.65808 19.6796 7.56641 19.6796H12.9164C15.8247 19.6796 15.9414 18.1046 16.0331 16.8296L16.5497 8.2879C16.5664 7.9879 16.4581 7.70457 16.2664 7.49623ZM11.6247 15.5046H8.84974C8.50808 15.5046 8.22474 15.2212 8.22474 14.8796C8.22474 14.5379 8.50808 14.2546 8.84974 14.2546H11.6247C11.9664 14.2546 12.2497 14.5379 12.2497 14.8796C12.2497 15.2212 11.9664 15.5046 11.6247 15.5046ZM12.3247 12.1712H8.15808C7.81641 12.1712 7.53308 11.8879 7.53308 11.5462C7.53308 11.2046 7.81641 10.9212 8.15808 10.9212H12.3247C12.6664 10.9212 12.9497 11.2046 12.9497 11.5462C12.9497 11.8879 12.6664 12.1712 12.3247 12.1712Z" fill="#868A96"/>
</svg>
