<svg width="21" height="21" viewBox="0 0 21 21" fill="none" xmlns="http://www.w3.org/2000/svg">
<path d="M10.3397 1.70694C14.3099 1.70694 17.7904 4.56857 18.6095 8.5891C19.4703 12.8156 16.8825 17.1507 12.7415 18.3832C10.278 19.1164 7.93649 18.8051 5.73688 17.4697C5.63057 17.4051 5.55037 17.4065 5.44312 17.4526C4.47833 17.8697 3.51068 18.2807 2.54542 18.6969C2.33946 18.7856 2.14346 18.7885 1.95506 18.6622C1.7192 18.5042 1.64232 18.2233 1.76286 17.939C2.1017 17.1398 2.44576 16.3426 2.78697 15.5443C2.87999 15.3275 3.04656 15.1068 3.03944 14.8923C3.0328 14.6878 2.84297 14.4899 2.73429 14.2886C1.9598 12.8597 1.61432 11.3292 1.71967 9.7105C1.94841 6.20535 4.21257 3.27728 7.55351 2.13832C8.42197 1.84267 9.31843 1.69792 10.3397 1.70694ZM5.86501 8.1525C5.88209 8.8876 6.13931 9.60799 6.54411 10.2724C7.4624 11.7796 8.68061 12.9954 10.185 13.9175C10.7796 14.282 11.4231 14.5345 12.1283 14.5871C12.7206 14.6313 13.2981 14.5658 13.7642 14.1572C14.0655 13.8933 14.3374 13.5929 14.5984 13.2883C14.8168 13.0339 14.785 12.6723 14.55 12.4321C14.215 12.089 13.8757 11.7497 13.5321 11.4151C13.2934 11.1826 12.9612 11.1874 12.7211 11.4194C12.5422 11.5922 12.3623 11.7644 12.1952 11.9486C12.0899 12.0643 11.9675 12.1052 11.8294 12.0648C11.5869 11.9941 11.3296 11.941 11.1142 11.8176C10.0815 11.2267 9.2629 10.4086 8.66542 9.38068C8.53776 9.16095 8.47987 8.89899 8.40536 8.65174C8.36218 8.50842 8.39919 8.37982 8.52258 8.26972C8.70339 8.10836 8.87044 7.93135 9.03938 7.75718C9.28568 7.50282 9.28568 7.17252 9.03653 6.91958C8.71288 6.59023 8.3859 6.2642 8.05703 5.9396C7.78937 5.67574 7.4344 5.65391 7.14491 5.89356C6.93088 6.07058 6.73157 6.26515 6.52703 6.45355C6.04582 6.89632 5.86975 7.46295 5.86453 8.1525H5.86501Z" fill="#1E99D3"/>
</svg>
