<svg width="18" height="19" viewBox="0 0 18 19" fill="none" xmlns="http://www.w3.org/2000/svg">
<path d="M17.8615 17.9172C17.6995 15.2443 15.5845 13.0693 12.9355 12.8593H12.9235C12.8965 12.9043 12.8665 12.9463 12.8395 12.9853C12.7465 13.1233 12.5575 13.1563 12.4225 13.0603C12.2875 12.9673 12.2545 12.7813 12.3475 12.6433C13.0075 11.6953 13.9705 9.4093 14.0635 7.58231C14.2315 4.28834 12.8395 2.56035 11.6426 1.69035C10.2686 0.694361 8.42358 0.694361 7.04959 1.69035C5.85259 2.56035 4.4606 4.28834 4.6286 7.58231C4.8566 12.0793 7.17858 13.1143 9.04157 13.9483C9.77057 14.2753 10.4036 14.5573 10.8176 15.0103C10.9286 15.1303 10.9196 15.3223 10.7996 15.4333C10.7426 15.4873 10.6676 15.5113 10.5956 15.5113C10.5146 15.5113 10.4336 15.4783 10.3766 15.4153C10.0436 15.0553 9.46757 14.7973 8.79557 14.4973C7.58958 13.9573 6.09859 13.2883 5.1056 11.6383C4.8026 12.0253 4.3946 12.8773 4.9766 14.3173C5.3036 15.1303 6.35359 16.5972 9.68957 17.2962C11.9786 17.7762 12.6355 18.5172 12.8215 18.9432H17.8855C17.8915 18.6162 17.8825 18.2712 17.8615 17.9172ZM9.35357 12.8503C9.35357 12.8503 9.34457 12.8533 9.33857 12.8533C9.33257 12.8533 9.32657 12.8533 9.32057 12.8503C5.72959 12.6463 5.5586 8.24531 5.5556 8.20031C5.5556 8.18231 5.5586 8.16131 5.5616 8.14331C5.93059 5.96832 7.04058 4.68433 8.03358 3.94634C8.06658 3.90734 8.10858 3.87734 8.15658 3.85634C9.04757 3.22934 9.81557 3.04034 9.83056 3.03734C9.99256 2.99834 10.1546 3.10034 10.1936 3.25934C10.2296 3.42134 10.1306 3.58334 9.96856 3.62234C9.92657 3.63134 9.59357 3.71534 9.13757 3.94634C10.3886 4.20734 12.5965 5.10133 13.1125 8.14331C13.1185 8.16131 13.1185 8.18231 13.1185 8.20031C13.1155 8.24531 12.9475 12.6463 9.35357 12.8503Z" fill="#868A96"/>
<path d="M4.42176 14.542C4.36176 14.398 4.31376 14.26 4.27176 14.125C1.92577 14.683 0.869781 16.144 0.800781 18.943H12.0927C11.8137 18.655 11.1477 18.214 9.56672 17.884C5.95775 17.128 4.79375 15.466 4.42176 14.542Z" fill="#868A96"/>
</svg>
